  0
SECTION
  2
HEADER
  9
$ACADVER
  1
AC1009
  9
$DWGCODEPAGE
  3
ansi_1252
  9
$INSBASE
 10
0.0
 20
0.0
 30
0.0
  9
$EXTMIN
 10
-37.0409
 20
-50.9233
 30
0.0
  9
$EXTMAX
 10
32.1355
 20
78.7529
 30
0.0
  9
$LIMMIN
 10
0.0
 20
0.0
  9
$LIMMAX
 10
12.0
 20
9.0
  9
$ORTHOMODE
 70
     0
  9
$REGENMODE
 70
     1
  9
$FILLMODE
 70
     1
  9
$QTEXTMODE
 70
     0
  9
$MIRRTEXT
 70
     1
  9
$DRAGMODE
 70
     2
  9
$LTSCALE
 40
1.0
  9
$OSMODE
 70
    37
  9
$ATTMODE
 70
     1
  9
$TEXTSIZE
 40
0.2
  9
$TRACEWID
 40
0.05
  9
$TEXTSTYLE
  7
STANDARD
  9
$CLAYER
  8
0
  9
$CELTYPE
  6
BYLAYER
  9
$CECOLOR
 62
   256
  9
$DIMSCALE
 40
1.0
  9
$DIMASZ
 40
0.18
  9
$DIMEXO
 40
0.0625
  9
$DIMDLI
 40
0.38
  9
$DIMRND
 40
0.0
  9
$DIMDLE
 40
0.0
  9
$DIMEXE
 40
0.18
  9
$DIMTP
 40
0.0
  9
$DIMTM
 40
0.0
  9
$DIMTXT
 40
0.18
  9
$DIMCEN
 40
0.09
  9
$DIMTSZ
 40
0.0
  9
$DIMTOL
 70
     0
  9
$DIMLIM
 70
     0
  9
$DIMTIH
 70
     1
  9
$DIMTOH
 70
     1
  9
$DIMSE1
 70
     0
  9
$DIMSE2
 70
     0
  9
$DIMTAD
 70
     0
  9
$DIMZIN
 70
     0
  9
$DIMBLK
  1

  9
$DIMASO
 70
     1
  9
$DIMSHO
 70
     1
  9
$DIMPOST
  1

  9
$DIMAPOST
  1

  9
$DIMALT
 70
     0
  9
$DIMALTD
 70
     2
  9
$DIMALTF
 40
25.4
  9
$DIMLFAC
 40
1.0
  9
$DIMTOFL
 70
     0
  9
$DIMTVP
 40
0.0
  9
$DIMTIX
 70
     0
  9
$DIMSOXD
 70
     0
  9
$DIMSAH
 70
     0
  9
$DIMBLK1
  1

  9
$DIMBLK2
  1

  9
$DIMSTYLE
  2
STANDARD
  9
$DIMCLRD
 70
     0
  9
$DIMCLRE
 70
     0
  9
$DIMCLRT
 70
     0
  9
$DIMTFAC
 40
1.0
  9
$DIMGAP
 40
0.09
  9
$LUNITS
 70
     2
  9
$LUPREC
 70
     4
  9
$SKETCHINC
 40
0.1
  9
$FILLETRAD
 40
0.5
  9
$AUNITS
 70
     0
  9
$AUPREC
 70
     0
  9
$MENU
  1
.
  9
$ELEVATION
 40
0.0
  9
$PELEVATION
 40
0.0
  9
$THICKNESS
 40
0.0
  9
$LIMCHECK
 70
     0
  9
$CHAMFERA
 40
0.0
  9
$CHAMFERB
 40
0.0
  9
$SKPOLY
 70
     0
  9
$TDCREATE
 40
2460584.726837083
  9
$TDUPDATE
 40
2460584.726837095
  9
$TDINDWG
 40
0.0000000116
  9
$TDUSRTIMER
 40
0.0000000116
  9
$USRTIMER
 70
     1
  9
$ANGBASE
 50
0.0
  9
$ANGDIR
 70
     0
  9
$PDMODE
 70
     0
  9
$PDSIZE
 40
0.0
  9
$PLINEWID
 40
0.0
  9
$COORDS
 70
     1
  9
$SPLFRAME
 70
     0
  9
$SPLINETYPE
 70
     6
  9
$SPLINESEGS
 70
     8
  9
$ATTDIA
 70
     0
  9
$ATTREQ
 70
     1
  9
$HANDLING
 70
     1
  9
$HANDSEED
  5
351
  9
$SURFTAB1
 70
     6
  9
$SURFTAB2
 70
     6
  9
$SURFTYPE
 70
     6
  9
$SURFU
 70
     6
  9
$SURFV
 70
     6
  9
$UCSNAME
  2

  9
$UCSORG
 10
0.0
 20
0.0
 30
0.0
  9
$UCSXDIR
 10
1.0
 20
0.0
 30
0.0
  9
$UCSYDIR
 10
0.0
 20
1.0
 30
0.0
  9
$PUCSNAME
  2

  9
$PUCSORG
 10
0.0
 20
0.0
 30
0.0
  9
$PUCSXDIR
 10
1.0
 20
0.0
 30
0.0
  9
$PUCSYDIR
 10
0.0
 20
1.0
 30
0.0
  9
$USERI1
 70
     0
  9
$USERI2
 70
     0
  9
$USERI3
 70
     0
  9
$USERI4
 70
     0
  9
$USERI5
 70
     0
  9
$USERR1
 40
0.0
  9
$USERR2
 40
0.0
  9
$USERR3
 40
0.0
  9
$USERR4
 40
0.0
  9
$USERR5
 40
0.0
  9
$WORLDVIEW
 70
     1
  9
$SHADEDGE
 70
     3
  9
$SHADEDIF
 70
    70
  9
$TILEMODE
 70
     1
  9
$MAXACTVP
 70
    64
  9
$PLIMCHECK
 70
     0
  9
$PEXTMIN
 10
1.000000000000000E+20
 20
1.000000000000000E+20
 30
1.000000000000000E+20
  9
$PEXTMAX
 10
-1.000000000000000E+20
 20
-1.000000000000000E+20
 30
-1.000000000000000E+20
  9
$PLIMMIN
 10
0.0
 20
0.0
  9
$PLIMMAX
 10
12.0
 20
9.0
  9
$UNITMODE
 70
     0
  9
$VISRETAIN
 70
     1
  9
$PLINEGEN
 70
     0
  9
$PSLTSCALE
 70
     1
  0
ENDSEC
  0
SECTION
  2
TABLES
  0
TABLE
  2
VPORT
 70
     1
  0
VPORT
  2
*ACTIVE
 70
     0
 10
0.0
 20
0.0
 11
1.0
 21
1.0
 12
10.42990654205607
 22
4.5
 13
0.0
 23
0.0
 14
0.5
 24
0.5
 15
0.5
 25
0.5
 16
0.0
 26
0.0
 36
1.0
 17
0.0
 27
0.0
 37
0.0
 40
9.0
 41
1.972972972850329
 42
50.0
 43
0.0
 44
0.0
 50
0.0
 51
0.0
 71
     0
 72
   100
 73
     1
 74
     3
 75
     0
 76
     0
 77
     0
 78
     0
  0
ENDTAB
  0
TABLE
  2
LTYPE
 70
     1
  0
LTYPE
  2
CONTINUOUS
 70
     0
  3
Solid line
 72
    65
 73
     0
 40
0.0
  0
ENDTAB
  0
TABLE
  2
LAYER
 70
     2
  0
LAYER
  2
0
 70
     0
 62
     7
  6
CONTINUOUS
  0
LAYER
  2
LAYER_1
 70
     0
 62
     7
  6
CONTINUOUS
  0
ENDTAB
  0
TABLE
  2
STYLE
 70
     1
  0
STYLE
  2
STANDARD
 70
     0
 40
0.0
 41
1.0
 50
0.0
 71
     0
 42
0.2
  3
txt
  4

  0
ENDTAB
  0
TABLE
  2
VIEW
 70
     0
  0
ENDTAB
  0
TABLE
  2
UCS
 70
     0
  0
ENDTAB
  0
TABLE
  2
APPID
 70
     2
  0
APPID
  2
ACAD
 70
     0
  0
APPID
  2
ODA
 70
     0
  0
ENDTAB
  0
TABLE
  2
DIMSTYLE
 70
     1
  0
DIMSTYLE
  2
STANDARD
 70
     0
  3

  4

  5

  6

  7

 40
1.0
 41
0.18
 42
0.0625
 43
0.38
 44
0.18
 45
0.0
 46
0.0
 47
0.0
 48
0.0
140
0.18
141
0.09
142
0.0
143
25.4
144
1.0
145
0.0
146
1.0
147
0.09
 71
     0
 72
     0
 73
     1
 74
     1
 75
     0
 76
     0
 77
     0
 78
     0
170
     0
171
     2
172
     0
173
     0
174
     0
175
     0
176
     0
177
     0
178
     0
  0
ENDTAB
  0
ENDSEC
  0
SECTION
  2
BLOCKS
  0
BLOCK
  8
0
  2
$MODEL_SPACE
 70
     0
 10
0.0
 20
0.0
 30
0.0
  3
$MODEL_SPACE
  1

  0
ENDBLK
  5
21
  8
0
  0
BLOCK
 67
     1
  8
0
  2
$PAPER_SPACE
 70
     0
 10
0.0
 20
0.0
 30
0.0
  3
$PAPER_SPACE
  1

  0
ENDBLK
  5
1D
 67
     1
  8
0
  0
ENDSEC
  0
SECTION
  2
ENTITIES
  0
POLYLINE
  5
70
  8
LAYER_1
 62
   250
 66
     1
 10
0.0
 20
0.0
 30
0.0
  0
VERTEX
  5
88
  8
LAYER_1
 62
   250
 10
-31.4527
 20
78.6647
 30
0.0
  0
VERTEX
  5
89
  8
LAYER_1
 62
   250
 10
-32.8277
 20
67.873
 30
0.0
  0
VERTEX
  5
8A
  8
LAYER_1
 62
   250
 10
-33.3997
 20
63.3414
 30
0.0
  0
VERTEX
  5
8B
  8
LAYER_1
 62
   250
 10
-34.0523
 20
57.9245
 30
0.0
  0
VERTEX
  5
8C
  8
LAYER_1
 62
   250
 10
-34.7371
 20
51.7488
 30
0.0
  0
VERTEX
  5
8D
  8
LAYER_1
 62
   250
 10
-35.4058
 20
44.9408
 30
0.0
  0
VERTEX
  5
8E
  8
LAYER_1
 62
   250
 10
-36.01
 20
37.6269
 30
0.0
  0
VERTEX
  5
8F
  8
LAYER_1
 62
   250
 10
-36.5015
 20
29.9337
 30
0.0
  0
VERTEX
  5
90
  8
LAYER_1
 62
   250
 10
-36.8318
 20
21.9875
 30
0.0
  0
VERTEX
  5
91
  8
LAYER_1
 62
   250
 10
-36.9527
 20
13.9148
 30
0.0
  0
VERTEX
  5
92
  8
LAYER_1
 62
   250
 10
-36.8292
 20
5.8211
 30
0.0
  0
VERTEX
  5
93
  8
LAYER_1
 62
   250
 10
-36.48
 20
-2.2727
 30
0.0
  0
VERTEX
  5
94
  8
LAYER_1
 62
   250
 10
-35.9375
 20
-10.3664
 30
0.0
  0
VERTEX
  5
95
  8
LAYER_1
 62
   250
 10
-35.2339
 20
-18.4602
 30
0.0
  0
VERTEX
  5
96
  8
LAYER_1
 62
   250
 10
-34.4014
 20
-26.5539
 30
0.0
  0
VERTEX
  5
97
  8
LAYER_1
 62
   250
 10
-33.4722
 20
-34.6476
 30
0.0
  0
VERTEX
  5
98
  8
LAYER_1
 62
   250
 10
-32.4786
 20
-42.7414
 30
0.0
  0
VERTEX
  5
99
  8
LAYER_1
 62
   250
 10
-31.4527
 20
-50.8351
 30
0.0
  0
VERTEX
  5
9A
  8
LAYER_1
 62
   250
 10
26.5473
 20
-50.8351
 30
0.0
  0
VERTEX
  5
9B
  8
LAYER_1
 62
   250
 10
27.5732
 20
-42.7414
 30
0.0
  0
VERTEX
  5
9C
  8
LAYER_1
 62
   250
 10
28.5668
 20
-34.6476
 30
0.0
  0
VERTEX
  5
9D
  8
LAYER_1
 62
   250
 10
29.496
 20
-26.5539
 30
0.0
  0
VERTEX
  5
9E
  8
LAYER_1
 62
   250
 10
30.3285
 20
-18.4602
 30
0.0
  0
VERTEX
  5
9F
  8
LAYER_1
 62
   250
 10
31.0321
 20
-10.3664
 30
0.0
  0
VERTEX
  5
A0
  8
LAYER_1
 62
   250
 10
31.5746
 20
-2.2727
 30
0.0
  0
VERTEX
  5
A1
  8
LAYER_1
 62
   250
 10
31.9238
 20
5.8211
 30
0.0
  0
VERTEX
  5
A2
  8
LAYER_1
 62
   250
 10
32.0473
 20
13.9148
 30
0.0
  0
VERTEX
  5
A3
  8
LAYER_1
 62
   250
 10
31.9238
 20
22.0085
 30
0.0
  0
VERTEX
  5
A4
  8
LAYER_1
 62
   250
 10
31.5746
 20
30.1023
 30
0.0
  0
VERTEX
  5
A5
  8
LAYER_1
 62
   250
 10
31.0321
 20
38.196
 30
0.0
  0
VERTEX
  5
A6
  8
LAYER_1
 62
   250
 10
30.3285
 20
46.2898
 30
0.0
  0
VERTEX
  5
A7
  8
LAYER_1
 62
   250
 10
29.496
 20
54.3835
 30
0.0
  0
VERTEX
  5
A8
  8
LAYER_1
 62
   250
 10
28.5668
 20
62.4772
 30
0.0
  0
VERTEX
  5
A9
  8
LAYER_1
 62
   250
 10
27.5732
 20
70.571
 30
0.0
  0
VERTEX
  5
AA
  8
LAYER_1
 62
   250
 10
26.5473
 20
78.6647
 30
0.0
  0
VERTEX
  5
AB
  8
LAYER_1
 62
   250
 10
-31.4527
 20
78.6647
 30
0.0
  0
SEQEND
  5
340
  8
LAYER_1
 62
   250
  0
POLYLINE
  5
71
  8
LAYER_1
 62
   250
 66
     1
 10
0.0
 20
0.0
 30
0.0
  0
VERTEX
  5
AC
  8
LAYER_1
 62
   250
 10
-10.2911
 20
-28.0522
 30
0.0
  0
VERTEX
  5
AD
  8
LAYER_1
 62
   250
 10
5.1815
 20
-28.0522
 30
0.0
  0
VERTEX
  5
AE
  8
LAYER_1
 62
   250
 10
5.7545
 20
-28.1104
 30
0.0
  0
VERTEX
  5
AF
  8
LAYER_1
 62
   250
 10
6.289
 20
-28.2773
 30
0.0
  0
VERTEX
  5
B0
  8
LAYER_1
 62
   250
 10
6.7735
 20
-28.541
 30
0.0
  0
VERTEX
  5
B1
  8
LAYER_1
 62
   250
 10
7.1961
 20
-28.8901
 30
0.0
  0
VERTEX
  5
B2
  8
LAYER_1
 62
   250
 10
7.5451
 20
-29.3126
 30
0.0
  0
VERTEX
  5
B3
  8
LAYER_1
 62
   250
 10
7.8089
 20
-29.7971
 30
0.0
  0
VERTEX
  5
B4
  8
LAYER_1
 62
   250
 10
7.9758
 20
-30.3317
 30
0.0
  0
VERTEX
  5
B5
  8
LAYER_1
 62
   250
 10
8.034
 20
-30.9047
 30
0.0
  0
VERTEX
  5
B6
  8
LAYER_1
 62
   250
 10
8.034
 20
-39.5586
 30
0.0
  0
VERTEX
  5
B7
  8
LAYER_1
 62
   250
 10
7.9758
 20
-40.1317
 30
0.0
  0
VERTEX
  5
B8
  8
LAYER_1
 62
   250
 10
7.8089
 20
-40.6663
 30
0.0
  0
VERTEX
  5
B9
  8
LAYER_1
 62
   250
 10
7.5451
 20
-41.1507
 30
0.0
  0
VERTEX
  5
BA
  8
LAYER_1
 62
   250
 10
7.1961
 20
-41.5733
 30
0.0
  0
VERTEX
  5
BB
  8
LAYER_1
 62
   250
 10
6.7735
 20
-41.9224
 30
0.0
  0
VERTEX
  5
BC
  8
LAYER_1
 62
   250
 10
6.289
 20
-42.1862
 30
0.0
  0
VERTEX
  5
BD
  8
LAYER_1
 62
   250
 10
5.7545
 20
-42.3531
 30
0.0
  0
VERTEX
  5
BE
  8
LAYER_1
 62
   250
 10
5.1815
 20
-42.4113
 30
0.0
  0
VERTEX
  5
BF
  8
LAYER_1
 62
   250
 10
-10.2911
 20
-42.4113
 30
0.0
  0
VERTEX
  5
C0
  8
LAYER_1
 62
   250
 10
-10.8641
 20
-42.3531
 30
0.0
  0
VERTEX
  5
C1
  8
LAYER_1
 62
   250
 10
-11.3986
 20
-42.1862
 30
0.0
  0
VERTEX
  5
C2
  8
LAYER_1
 62
   250
 10
-11.8831
 20
-41.9224
 30
0.0
  0
VERTEX
  5
C3
  8
LAYER_1
 62
   250
 10
-12.3057
 20
-41.5733
 30
0.0
  0
VERTEX
  5
C4
  8
LAYER_1
 62
   250
 10
-12.6547
 20
-41.1507
 30
0.0
  0
VERTEX
  5
C5
  8
LAYER_1
 62
   250
 10
-12.9185
 20
-40.6663
 30
0.0
  0
VERTEX
  5
C6
  8
LAYER_1
 62
   250
 10
-13.0854
 20
-40.1317
 30
0.0
  0
VERTEX
  5
C7
  8
LAYER_1
 62
   250
 10
-13.1436
 20
-39.5586
 30
0.0
  0
VERTEX
  5
C8
  8
LAYER_1
 62
   250
 10
-13.1436
 20
-30.9047
 30
0.0
  0
VERTEX
  5
C9
  8
LAYER_1
 62
   250
 10
-13.0854
 20
-30.3317
 30
0.0
  0
VERTEX
  5
CA
  8
LAYER_1
 62
   250
 10
-12.9185
 20
-29.7971
 30
0.0
  0
VERTEX
  5
CB
  8
LAYER_1
 62
   250
 10
-12.6547
 20
-29.3126
 30
0.0
  0
VERTEX
  5
CC
  8
LAYER_1
 62
   250
 10
-12.3057
 20
-28.8901
 30
0.0
  0
VERTEX
  5
CD
  8
LAYER_1
 62
   250
 10
-11.8831
 20
-28.541
 30
0.0
  0
VERTEX
  5
CE
  8
LAYER_1
 62
   250
 10
-11.3986
 20
-28.2773
 30
0.0
  0
VERTEX
  5
CF
  8
LAYER_1
 62
   250
 10
-10.8641
 20
-28.1104
 30
0.0
  0
VERTEX
  5
D0
  8
LAYER_1
 62
   250
 10
-10.2911
 20
-28.0522
 30
0.0
  0
SEQEND
  5
341
  8
LAYER_1
 62
   250
  0
POLYLINE
  5
72
  8
LAYER_1
 62
   250
 66
     1
 10
0.0
 20
0.0
 30
0.0
  0
VERTEX
  5
D1
  8
LAYER_1
 62
   250
 10
0.3497
 20
-9.2614
 30
0.0
  0
VERTEX
  5
D2
  8
LAYER_1
 62
   250
 10
10.5237
 20
-9.2614
 30
0.0
  0
VERTEX
  5
D3
  8
LAYER_1
 62
   250
 10
10.8767
 20
-9.2973
 30
0.0
  0
VERTEX
  5
D4
  8
LAYER_1
 62
   250
 10
11.206
 20
-9.4001
 30
0.0
  0
VERTEX
  5
D5
  8
LAYER_1
 62
   250
 10
11.5044
 20
-9.5626
 30
0.0
  0
VERTEX
  5
D6
  8
LAYER_1
 62
   250
 10
11.7647
 20
-9.7776
 30
0.0
  0
VERTEX
  5
D7
  8
LAYER_1
 62
   250
 10
11.9797
 20
-10.0379
 30
0.0
  0
VERTEX
  5
D8
  8
LAYER_1
 62
   250
 10
12.1423
 20
-10.3364
 30
0.0
  0
VERTEX
  5
D9
  8
LAYER_1
 62
   250
 10
12.245
 20
-10.6657
 30
0.0
  0
VERTEX
  5
DA
  8
LAYER_1
 62
   250
 10
12.2809
 20
-11.0187
 30
0.0
  0
VERTEX
  5
DB
  8
LAYER_1
 62
   250
 10
12.2809
 20
-21.8344
 30
0.0
  0
VERTEX
  5
DC
  8
LAYER_1
 62
   250
 10
12.245
 20
-22.1874
 30
0.0
  0
VERTEX
  5
DD
  8
LAYER_1
 62
   250
 10
12.1423
 20
-22.5167
 30
0.0
  0
VERTEX
  5
DE
  8
LAYER_1
 62
   250
 10
11.9797
 20
-22.8151
 30
0.0
  0
VERTEX
  5
DF
  8
LAYER_1
 62
   250
 10
11.7647
 20
-23.0754
 30
0.0
  0
VERTEX
  5
E0
  8
LAYER_1
 62
   250
 10
11.5044
 20
-23.2904
 30
0.0
  0
VERTEX
  5
E1
  8
LAYER_1
 62
   250
 10
11.206
 20
-23.453
 30
0.0
  0
VERTEX
  5
E2
  8
LAYER_1
 62
   250
 10
10.8767
 20
-23.5557
 30
0.0
  0
VERTEX
  5
E3
  8
LAYER_1
 62
   250
 10
10.5237
 20
-23.5916
 30
0.0
  0
VERTEX
  5
E4
  8
LAYER_1
 62
   250
 10
0.3497
 20
-23.5916
 30
0.0
  0
VERTEX
  5
E5
  8
LAYER_1
 62
   250
 10
-0.0033
 20
-23.5557
 30
0.0
  0
VERTEX
  5
E6
  8
LAYER_1
 62
   250
 10
-0.3326
 20
-23.453
 30
0.0
  0
VERTEX
  5
E7
  8
LAYER_1
 62
   250
 10
-0.6311
 20
-23.2904
 30
0.0
  0
VERTEX
  5
E8
  8
LAYER_1
 62
   250
 10
-0.8914
 20
-23.0754
 30
0.0
  0
VERTEX
  5
E9
  8
LAYER_1
 62
   250
 10
-1.1064
 20
-22.8151
 30
0.0
  0
VERTEX
  5
EA
  8
LAYER_1
 62
   250
 10
-1.2689
 20
-22.5167
 30
0.0
  0
VERTEX
  5
EB
  8
LAYER_1
 62
   250
 10
-1.3717
 20
-22.1874
 30
0.0
  0
VERTEX
  5
EC
  8
LAYER_1
 62
   250
 10
-1.4076
 20
-21.8344
 30
0.0
  0
VERTEX
  5
ED
  8
LAYER_1
 62
   250
 10
-1.4076
 20
-11.0187
 30
0.0
  0
VERTEX
  5
EE
  8
LAYER_1
 62
   250
 10
-1.3717
 20
-10.6657
 30
0.0
  0
VERTEX
  5
EF
  8
LAYER_1
 62
   250
 10
-1.2689
 20
-10.3364
 30
0.0
  0
VERTEX
  5
F0
  8
LAYER_1
 62
   250
 10
-1.1064
 20
-10.0379
 30
0.0
  0
VERTEX
  5
F1
  8
LAYER_1
 62
   250
 10
-0.8914
 20
-9.7776
 30
0.0
  0
VERTEX
  5
F2
  8
LAYER_1
 62
   250
 10
-0.6311
 20
-9.5626
 30
0.0
  0
VERTEX
  5
F3
  8
LAYER_1
 62
   250
 10
-0.3326
 20
-9.4001
 30
0.0
  0
VERTEX
  5
F4
  8
LAYER_1
 62
   250
 10
-0.0033
 20
-9.2973
 30
0.0
  0
VERTEX
  5
F5
  8
LAYER_1
 62
   250
 10
0.3497
 20
-9.2614
 30
0.0
  0
SEQEND
  5
342
  8
LAYER_1
 62
   250
  0
POLYLINE
  5
73
  8
LAYER_1
 62
   250
 66
     1
 10
0.0
 20
0.0
 30
0.0
  0
VERTEX
  5
F6
  8
LAYER_1
 62
   250
 10
-15.5428
 20
-9.2614
 30
0.0
  0
VERTEX
  5
F7
  8
LAYER_1
 62
   250
 10
-5.3688
 20
-9.2614
 30
0.0
  0
VERTEX
  5
F8
  8
LAYER_1
 62
   250
 10
-5.0158
 20
-9.2973
 30
0.0
  0
VERTEX
  5
F9
  8
LAYER_1
 62
   250
 10
-4.6865
 20
-9.4001
 30
0.0
  0
VERTEX
  5
FA
  8
LAYER_1
 62
   250
 10
-4.388
 20
-9.5626
 30
0.0
  0
VERTEX
  5
FB
  8
LAYER_1
 62
   250
 10
-4.1277
 20
-9.7776
 30
0.0
  0
VERTEX
  5
FC
  8
LAYER_1
 62
   250
 10
-3.9126
 20
-10.0379
 30
0.0
  0
VERTEX
  5
FD
  8
LAYER_1
 62
   250
 10
-3.7501
 20
-10.3364
 30
0.0
  0
VERTEX
  5
FE
  8
LAYER_1
 62
   250
 10
-3.6473
 20
-10.6657
 30
0.0
  0
VERTEX
  5
FF
  8
LAYER_1
 62
   250
 10
-3.6114
 20
-11.0187
 30
0.0
  0
VERTEX
  5
100
  8
LAYER_1
 62
   250
 10
-3.6114
 20
-21.8344
 30
0.0
  0
VERTEX
  5
101
  8
LAYER_1
 62
   250
 10
-3.6473
 20
-22.1874
 30
0.0
  0
VERTEX
  5
102
  8
LAYER_1
 62
   250
 10
-3.7501
 20
-22.5167
 30
0.0
  0
VERTEX
  5
103
  8
LAYER_1
 62
   250
 10
-3.9126
 20
-22.8151
 30
0.0
  0
VERTEX
  5
104
  8
LAYER_1
 62
   250
 10
-4.1277
 20
-23.0754
 30
0.0
  0
VERTEX
  5
105
  8
LAYER_1
 62
   250
 10
-4.388
 20
-23.2904
 30
0.0
  0
VERTEX
  5
106
  8
LAYER_1
 62
   250
 10
-4.6865
 20
-23.453
 30
0.0
  0
VERTEX
  5
107
  8
LAYER_1
 62
   250
 10
-5.0158
 20
-23.5557
 30
0.0
  0
VERTEX
  5
108
  8
LAYER_1
 62
   250
 10
-5.3688
 20
-23.5916
 30
0.0
  0
VERTEX
  5
109
  8
LAYER_1
 62
   250
 10
-15.5428
 20
-23.5916
 30
0.0
  0
VERTEX
  5
10A
  8
LAYER_1
 62
   250
 10
-15.8958
 20
-23.5557
 30
0.0
  0
VERTEX
  5
10B
  8
LAYER_1
 62
   250
 10
-16.2251
 20
-23.453
 30
0.0
  0
VERTEX
  5
10C
  8
LAYER_1
 62
   250
 10
-16.5236
 20
-23.2904
 30
0.0
  0
VERTEX
  5
10D
  8
LAYER_1
 62
   250
 10
-16.7839
 20
-23.0754
 30
0.0
  0
VERTEX
  5
10E
  8
LAYER_1
 62
   250
 10
-16.9989
 20
-22.8151
 30
0.0
  0
VERTEX
  5
10F
  8
LAYER_1
 62
   250
 10
-17.1614
 20
-22.5167
 30
0.0
  0
VERTEX
  5
110
  8
LAYER_1
 62
   250
 10
-17.2642
 20
-22.1874
 30
0.0
  0
VERTEX
  5
111
  8
LAYER_1
 62
   250
 10
-17.3001
 20
-21.8344
 30
0.0
  0
VERTEX
  5
112
  8
LAYER_1
 62
   250
 10
-17.3001
 20
-11.0187
 30
0.0
  0
VERTEX
  5
113
  8
LAYER_1
 62
   250
 10
-17.2642
 20
-10.6657
 30
0.0
  0
VERTEX
  5
114
  8
LAYER_1
 62
   250
 10
-17.1614
 20
-10.3364
 30
0.0
  0
VERTEX
  5
115
  8
LAYER_1
 62
   250
 10
-16.9989
 20
-10.0379
 30
0.0
  0
VERTEX
  5
116
  8
LAYER_1
 62
   250
 10
-16.7839
 20
-9.7776
 30
0.0
  0
VERTEX
  5
117
  8
LAYER_1
 62
   250
 10
-16.5236
 20
-9.5626
 30
0.0
  0
VERTEX
  5
118
  8
LAYER_1
 62
   250
 10
-16.2251
 20
-9.4001
 30
0.0
  0
VERTEX
  5
119
  8
LAYER_1
 62
   250
 10
-15.8958
 20
-9.2973
 30
0.0
  0
VERTEX
  5
11A
  8
LAYER_1
 62
   250
 10
-15.5428
 20
-9.2614
 30
0.0
  0
SEQEND
  5
343
  8
LAYER_1
 62
   250
  0
POLYLINE
  5
74
  8
LAYER_1
 62
   250
 66
     1
 10
0.0
 20
0.0
 30
0.0
  0
VERTEX
  5
11B
  8
LAYER_1
 62
   250
 10
-30.785
 20
10.3579
 30
0.0
  0
VERTEX
  5
11C
  8
LAYER_1
 62
   250
 10
-31.4341
 20
10.292
 30
0.0
  0
VERTEX
  5
11D
  8
LAYER_1
 62
   250
 10
-32.0396
 20
10.103
 30
0.0
  0
VERTEX
  5
11E
  8
LAYER_1
 62
   250
 10
-32.5884
 20
9.8042
 30
0.0
  0
VERTEX
  5
11F
  8
LAYER_1
 62
   250
 10
-33.0671
 20
9.4088
 30
0.0
  0
VERTEX
  5
120
  8
LAYER_1
 62
   250
 10
-33.4624
 20
8.9301
 30
0.0
  0
VERTEX
  5
121
  8
LAYER_1
 62
   250
 10
-33.7612
 20
8.3814
 30
0.0
  0
VERTEX
  5
122
  8
LAYER_1
 62
   250
 10
-33.9503
 20
7.7759
 30
0.0
  0
VERTEX
  5
123
  8
LAYER_1
 62
   250
 10
-34.0162
 20
7.1268
 30
0.0
  0
VERTEX
  5
124
  8
LAYER_1
 62
   250
 10
-34.0162
 20
-0.9452
 30
0.0
  0
VERTEX
  5
125
  8
LAYER_1
 62
   250
 10
-33.9503
 20
-1.5943
 30
0.0
  0
VERTEX
  5
126
  8
LAYER_1
 62
   250
 10
-33.7612
 20
-2.1998
 30
0.0
  0
VERTEX
  5
127
  8
LAYER_1
 62
   250
 10
-33.4624
 20
-2.7485
 30
0.0
  0
VERTEX
  5
128
  8
LAYER_1
 62
   250
 10
-33.0671
 20
-3.2272
 30
0.0
  0
VERTEX
  5
129
  8
LAYER_1
 62
   250
 10
-32.5884
 20
-3.6226
 30
0.0
  0
VERTEX
  5
12A
  8
LAYER_1
 62
   250
 10
-32.0396
 20
-3.9214
 30
0.0
  0
VERTEX
  5
12B
  8
LAYER_1
 62
   250
 10
-31.4341
 20
-4.1104
 30
0.0
  0
VERTEX
  5
12C
  8
LAYER_1
 62
   250
 10
-30.785
 20
-4.1763
 30
0.0
  0
VERTEX
  5
12D
  8
LAYER_1
 62
   250
 10
-20.4807
 20
-4.1763
 30
0.0
  0
VERTEX
  5
12E
  8
LAYER_1
 62
   250
 10
-20.0379
 20
-4.1692
 30
0.0
  0
VERTEX
  5
12F
  8
LAYER_1
 62
   250
 10
-19.5851
 20
-4.1417
 30
0.0
  0
VERTEX
  5
130
  8
LAYER_1
 62
   250
 10
-19.1392
 20
-4.0849
 30
0.0
  0
VERTEX
  5
131
  8
LAYER_1
 62
   250
 10
-18.7172
 20
-3.9895
 30
0.0
  0
VERTEX
  5
132
  8
LAYER_1
 62
   250
 10
-18.3358
 20
-3.8465
 30
0.0
  0
VERTEX
  5
133
  8
LAYER_1
 62
   250
 10
-18.0121
 20
-3.6468
 30
0.0
  0
VERTEX
  5
134
  8
LAYER_1
 62
   250
 10
-17.7631
 20
-3.3813
 30
0.0
  0
VERTEX
  5
135
  8
LAYER_1
 62
   250
 10
-17.6055
 20
-3.0408
 30
0.0
  0
VERTEX
  5
136
  8
LAYER_1
 62
   250
 10
-17.559
 20
-2.7714
 30
0.0
  0
VERTEX
  5
137
  8
LAYER_1
 62
   250
 10
-17.5568
 20
-2.4502
 30
0.0
  0
VERTEX
  5
138
  8
LAYER_1
 62
   250
 10
-17.6054
 20
-2.0924
 30
0.0
  0
VERTEX
  5
139
  8
LAYER_1
 62
   250
 10
-17.7117
 20
-1.7131
 30
0.0
  0
VERTEX
  5
13A
  8
LAYER_1
 62
   250
 10
-17.8821
 20
-1.3274
 30
0.0
  0
VERTEX
  5
13B
  8
LAYER_1
 62
   250
 10
-18.1233
 20
-0.9505
 30
0.0
  0
VERTEX
  5
13C
  8
LAYER_1
 62
   250
 10
-18.442
 20
-0.5975
 30
0.0
  0
VERTEX
  5
13D
  8
LAYER_1
 62
   250
 10
-18.8447
 20
-0.2834
 30
0.0
  0
VERTEX
  5
13E
  8
LAYER_1
 62
   250
 10
-20.0999
 20
0.5856
 30
0.0
  0
VERTEX
  5
13F
  8
LAYER_1
 62
   250
 10
-21.2975
 20
1.5283
 30
0.0
  0
VERTEX
  5
140
  8
LAYER_1
 62
   250
 10
-22.4342
 20
2.5413
 30
0.0
  0
VERTEX
  5
141
  8
LAYER_1
 62
   250
 10
-23.5067
 20
3.6213
 30
0.0
  0
VERTEX
  5
142
  8
LAYER_1
 62
   250
 10
-24.5117
 20
4.7652
 30
0.0
  0
VERTEX
  5
143
  8
LAYER_1
 62
   250
 10
-25.446
 20
5.9695
 30
0.0
  0
VERTEX
  5
144
  8
LAYER_1
 62
   250
 10
-26.3064
 20
7.2312
 30
0.0
  0
VERTEX
  5
145
  8
LAYER_1
 62
   250
 10
-27.0895
 20
8.5468
 30
0.0
  0
VERTEX
  5
146
  8
LAYER_1
 62
   250
 10
-27.3268
 20
8.9532
 30
0.0
  0
VERTEX
  5
147
  8
LAYER_1
 62
   250
 10
-27.5438
 20
9.2822
 30
0.0
  0
VERTEX
  5
148
  8
LAYER_1
 62
   250
 10
-27.7427
 20
9.5433
 30
0.0
  0
VERTEX
  5
149
  8
LAYER_1
 62
   250
 10
-27.9263
 20
9.7461
 30
0.0
  0
VERTEX
  5
14A
  8
LAYER_1
 62
   250
 10
-28.0969
 20
9.9001
 30
0.0
  0
VERTEX
  5
14B
  8
LAYER_1
 62
   250
 10
-28.2571
 20
10.0148
 30
0.0
  0
VERTEX
  5
14C
  8
LAYER_1
 62
   250
 10
-28.4094
 20
10.0996
 30
0.0
  0
VERTEX
  5
14D
  8
LAYER_1
 62
   250
 10
-28.5563
 20
10.1642
 30
0.0
  0
VERTEX
  5
14E
  8
LAYER_1
 62
   250
 10
-28.7017
 20
10.2165
 30
0.0
  0
VERTEX
  5
14F
  8
LAYER_1
 62
   250
 10
-28.8577
 20
10.259
 30
0.0
  0
VERTEX
  5
150
  8
LAYER_1
 62
   250
 10
-29.0381
 20
10.2927
 30
0.0
  0
VERTEX
  5
151
  8
LAYER_1
 62
   250
 10
-29.2566
 20
10.3184
 30
0.0
  0
VERTEX
  5
152
  8
LAYER_1
 62
   250
 10
-29.8625
 20
10.3492
 30
0.0
  0
VERTEX
  5
153
  8
LAYER_1
 62
   250
 10
-30.785
 20
10.3579
 30
0.0
  0
SEQEND
  5
344
  8
LAYER_1
 62
   250
  0
POLYLINE
  5
75
  8
LAYER_1
 62
   250
 66
     1
 10
0.0
 20
0.0
 30
0.0
  0
VERTEX
  5
154
  8
LAYER_1
 62
   250
 10
25.6046
 20
10.4638
 30
0.0
  0
VERTEX
  5
155
  8
LAYER_1
 62
   250
 10
26.2537
 20
10.3979
 30
0.0
  0
VERTEX
  5
156
  8
LAYER_1
 62
   250
 10
26.8592
 20
10.2089
 30
0.0
  0
VERTEX
  5
157
  8
LAYER_1
 62
   250
 10
27.408
 20
9.9101
 30
0.0
  0
VERTEX
  5
158
  8
LAYER_1
 62
   250
 10
27.8867
 20
9.5147
 30
0.0
  0
VERTEX
  5
159
  8
LAYER_1
 62
   250
 10
28.282
 20
9.0361
 30
0.0
  0
VERTEX
  5
15A
  8
LAYER_1
 62
   250
 10
28.5808
 20
8.4874
 30
0.0
  0
VERTEX
  5
15B
  8
LAYER_1
 62
   250
 10
28.7699
 20
7.8818
 30
0.0
  0
VERTEX
  5
15C
  8
LAYER_1
 62
   250
 10
28.8358
 20
7.2327
 30
0.0
  0
VERTEX
  5
15D
  8
LAYER_1
 62
   250
 10
28.8358
 20
-0.8392
 30
0.0
  0
VERTEX
  5
15E
  8
LAYER_1
 62
   250
 10
28.7699
 20
-1.4883
 30
0.0
  0
VERTEX
  5
15F
  8
LAYER_1
 62
   250
 10
28.5808
 20
-2.0938
 30
0.0
  0
VERTEX
  5
160
  8
LAYER_1
 62
   250
 10
28.282
 20
-2.6425
 30
0.0
  0
VERTEX
  5
161
  8
LAYER_1
 62
   250
 10
27.8867
 20
-3.1212
 30
0.0
  0
VERTEX
  5
162
  8
LAYER_1
 62
   250
 10
27.408
 20
-3.5166
 30
0.0
  0
VERTEX
  5
163
  8
LAYER_1
 62
   250
 10
26.8592
 20
-3.8154
 30
0.0
  0
VERTEX
  5
164
  8
LAYER_1
 62
   250
 10
26.2537
 20
-4.0044
 30
0.0
  0
VERTEX
  5
165
  8
LAYER_1
 62
   250
 10
25.6046
 20
-4.0703
 30
0.0
  0
VERTEX
  5
166
  8
LAYER_1
 62
   250
 10
15.3002
 20
-4.0703
 30
0.0
  0
VERTEX
  5
167
  8
LAYER_1
 62
   250
 10
14.8575
 20
-4.0632
 30
0.0
  0
VERTEX
  5
168
  8
LAYER_1
 62
   250
 10
14.4047
 20
-4.0358
 30
0.0
  0
VERTEX
  5
169
  8
LAYER_1
 62
   250
 10
13.9588
 20
-3.9789
 30
0.0
  0
VERTEX
  5
16A
  8
LAYER_1
 62
   250
 10
13.5367
 20
-3.8836
 30
0.0
  0
VERTEX
  5
16B
  8
LAYER_1
 62
   250
 10
13.1554
 20
-3.7406
 30
0.0
  0
VERTEX
  5
16C
  8
LAYER_1
 62
   250
 10
12.8317
 20
-3.5408
 30
0.0
  0
VERTEX
  5
16D
  8
LAYER_1
 62
   250
 10
12.5827
 20
-3.2753
 30
0.0
  0
VERTEX
  5
16E
  8
LAYER_1
 62
   250
 10
12.4251
 20
-2.9348
 30
0.0
  0
VERTEX
  5
16F
  8
LAYER_1
 62
   250
 10
12.3786
 20
-2.6654
 30
0.0
  0
VERTEX
  5
170
  8
LAYER_1
 62
   250
 10
12.3764
 20
-2.3442
 30
0.0
  0
VERTEX
  5
171
  8
LAYER_1
 62
   250
 10
12.425
 20
-1.9864
 30
0.0
  0
VERTEX
  5
172
  8
LAYER_1
 62
   250
 10
12.5313
 20
-1.6071
 30
0.0
  0
VERTEX
  5
173
  8
LAYER_1
 62
   250
 10
12.7017
 20
-1.2215
 30
0.0
  0
VERTEX
  5
174
  8
LAYER_1
 62
   250
 10
12.9429
 20
-0.8446
 30
0.0
  0
VERTEX
  5
175
  8
LAYER_1
 62
   250
 10
13.2616
 20
-0.4915
 30
0.0
  0
VERTEX
  5
176
  8
LAYER_1
 62
   250
 10
13.6643
 20
-0.1774
 30
0.0
  0
VERTEX
  5
177
  8
LAYER_1
 62
   250
 10
14.9195
 20
0.6916
 30
0.0
  0
VERTEX
  5
178
  8
LAYER_1
 62
   250
 10
16.1171
 20
1.6343
 30
0.0
  0
VERTEX
  5
179
  8
LAYER_1
 62
   250
 10
17.2537
 20
2.6472
 30
0.0
  0
VERTEX
  5
17A
  8
LAYER_1
 62
   250
 10
18.3262
 20
3.7273
 30
0.0
  0
VERTEX
  5
17B
  8
LAYER_1
 62
   250
 10
19.3313
 20
4.8711
 30
0.0
  0
VERTEX
  5
17C
  8
LAYER_1
 62
   250
 10
20.2656
 20
6.0755
 30
0.0
  0
VERTEX
  5
17D
  8
LAYER_1
 62
   250
 10
21.126
 20
7.3372
 30
0.0
  0
VERTEX
  5
17E
  8
LAYER_1
 62
   250
 10
21.9091
 20
8.6528
 30
0.0
  0
VERTEX
  5
17F
  8
LAYER_1
 62
   250
 10
22.1464
 20
9.0592
 30
0.0
  0
VERTEX
  5
180
  8
LAYER_1
 62
   250
 10
22.3633
 20
9.3882
 30
0.0
  0
VERTEX
  5
181
  8
LAYER_1
 62
   250
 10
22.5623
 20
9.6493
 30
0.0
  0
VERTEX
  5
182
  8
LAYER_1
 62
   250
 10
22.7459
 20
9.8521
 30
0.0
  0
VERTEX
  5
183
  8
LAYER_1
 62
   250
 10
22.9165
 20
10.006
 30
0.0
  0
VERTEX
  5
184
  8
LAYER_1
 62
   250
 10
23.0767
 20
10.1207
 30
0.0
  0
VERTEX
  5
185
  8
LAYER_1
 62
   250
 10
23.229
 20
10.2055
 30
0.0
  0
VERTEX
  5
186
  8
LAYER_1
 62
   250
 10
23.3759
 20
10.2701
 30
0.0
  0
VERTEX
  5
187
  8
LAYER_1
 62
   250
 10
23.5212
 20
10.3224
 30
0.0
  0
VERTEX
  5
188
  8
LAYER_1
 62
   250
 10
23.6773
 20
10.365
 30
0.0
  0
VERTEX
  5
189
  8
LAYER_1
 62
   250
 10
23.8576
 20
10.3987
 30
0.0
  0
VERTEX
  5
18A
  8
LAYER_1
 62
   250
 10
24.0761
 20
10.4244
 30
0.0
  0
VERTEX
  5
18B
  8
LAYER_1
 62
   250
 10
24.682
 20
10.4551
 30
0.0
  0
VERTEX
  5
18C
  8
LAYER_1
 62
   250
 10
25.6046
 20
10.4638
 30
0.0
  0
SEQEND
  5
345
  8
LAYER_1
 62
   250
  0
POLYLINE
  5
76
  8
LAYER_1
 62
   250
 66
     1
 10
0.0
 20
0.0
 30
0.0
  0
VERTEX
  5
18D
  8
LAYER_1
 62
   250
 10
15.9928
 20
-8.9671
 30
0.0
  0
VERTEX
  5
18E
  8
LAYER_1
 62
   250
 10
26.1668
 20
-8.9671
 30
0.0
  0
VERTEX
  5
18F
  8
LAYER_1
 62
   250
 10
26.5198
 20
-9.003
 30
0.0
  0
VERTEX
  5
190
  8
LAYER_1
 62
   250
 10
26.8491
 20
-9.1058
 30
0.0
  0
VERTEX
  5
191
  8
LAYER_1
 62
   250
 10
27.1475
 20
-9.2683
 30
0.0
  0
VERTEX
  5
192
  8
LAYER_1
 62
   250
 10
27.4078
 20
-9.4833
 30
0.0
  0
VERTEX
  5
193
  8
LAYER_1
 62
   250
 10
27.6228
 20
-9.7436
 30
0.0
  0
VERTEX
  5
194
  8
LAYER_1
 62
   250
 10
27.7854
 20
-10.0421
 30
0.0
  0
VERTEX
  5
195
  8
LAYER_1
 62
   250
 10
27.8881
 20
-10.3714
 30
0.0
  0
VERTEX
  5
196
  8
LAYER_1
 62
   250
 10
27.924
 20
-10.7244
 30
0.0
  0
VERTEX
  5
197
  8
LAYER_1
 62
   250
 10
27.924
 20
-21.5401
 30
0.0
  0
VERTEX
  5
198
  8
LAYER_1
 62
   250
 10
27.8881
 20
-21.8931
 30
0.0
  0
VERTEX
  5
199
  8
LAYER_1
 62
   250
 10
27.7854
 20
-22.2224
 30
0.0
  0
VERTEX
  5
19A
  8
LAYER_1
 62
   250
 10
27.6228
 20
-22.5209
 30
0.0
  0
VERTEX
  5
19B
  8
LAYER_1
 62
   250
 10
27.4078
 20
-22.7812
 30
0.0
  0
VERTEX
  5
19C
  8
LAYER_1
 62
   250
 10
27.1475
 20
-22.9962
 30
0.0
  0
VERTEX
  5
19D
  8
LAYER_1
 62
   250
 10
26.8491
 20
-23.1587
 30
0.0
  0
VERTEX
  5
19E
  8
LAYER_1
 62
   250
 10
26.5198
 20
-23.2615
 30
0.0
  0
VERTEX
  5
19F
  8
LAYER_1
 62
   250
 10
26.1668
 20
-23.2974
 30
0.0
  0
VERTEX
  5
1A0
  8
LAYER_1
 62
   250
 10
15.9928
 20
-23.2974
 30
0.0
  0
VERTEX
  5
1A1
  8
LAYER_1
 62
   250
 10
15.6398
 20
-23.2615
 30
0.0
  0
VERTEX
  5
1A2
  8
LAYER_1
 62
   250
 10
15.3105
 20
-23.1587
 30
0.0
  0
VERTEX
  5
1A3
  8
LAYER_1
 62
   250
 10
15.012
 20
-22.9962
 30
0.0
  0
VERTEX
  5
1A4
  8
LAYER_1
 62
   250
 10
14.7517
 20
-22.7812
 30
0.0
  0
VERTEX
  5
1A5
  8
LAYER_1
 62
   250
 10
14.5367
 20
-22.5209
 30
0.0
  0
VERTEX
  5
1A6
  8
LAYER_1
 62
   250
 10
14.3742
 20
-22.2224
 30
0.0
  0
VERTEX
  5
1A7
  8
LAYER_1
 62
   250
 10
14.2714
 20
-21.8931
 30
0.0
  0
VERTEX
  5
1A8
  8
LAYER_1
 62
   250
 10
14.2355
 20
-21.5401
 30
0.0
  0
VERTEX
  5
1A9
  8
LAYER_1
 62
   250
 10
14.2355
 20
-10.7244
 30
0.0
  0
VERTEX
  5
1AA
  8
LAYER_1
 62
   250
 10
14.2714
 20
-10.3714
 30
0.0
  0
VERTEX
  5
1AB
  8
LAYER_1
 62
   250
 10
14.3742
 20
-10.0421
 30
0.0
  0
VERTEX
  5
1AC
  8
LAYER_1
 62
   250
 10
14.5367
 20
-9.7436
 30
0.0
  0
VERTEX
  5
1AD
  8
LAYER_1
 62
   250
 10
14.7517
 20
-9.4833
 30
0.0
  0
VERTEX
  5
1AE
  8
LAYER_1
 62
   250
 10
15.012
 20
-9.2683
 30
0.0
  0
VERTEX
  5
1AF
  8
LAYER_1
 62
   250
 10
15.3105
 20
-9.1058
 30
0.0
  0
VERTEX
  5
1B0
  8
LAYER_1
 62
   250
 10
15.6398
 20
-9.003
 30
0.0
  0
VERTEX
  5
1B1
  8
LAYER_1
 62
   250
 10
15.9928
 20
-8.9671
 30
0.0
  0
SEQEND
  5
346
  8
LAYER_1
 62
   250
  0
POLYLINE
  5
77
  8
LAYER_1
 62
   250
 66
     1
 10
0.0
 20
0.0
 30
0.0
  0
VERTEX
  5
1B2
  8
LAYER_1
 62
   250
 10
-2.4514
 20
32.5745
 30
0.0
  0
VERTEX
  5
1B3
  8
LAYER_1
 62
   250
 10
-0.5531
 20
32.3831
 30
0.0
  0
VERTEX
  5
1B4
  8
LAYER_1
 62
   250
 10
1.2151
 20
31.8343
 30
0.0
  0
VERTEX
  5
1B5
  8
LAYER_1
 62
   250
 10
2.8151
 20
30.9658
 30
0.0
  0
VERTEX
  5
1B6
  8
LAYER_1
 62
   250
 10
4.2091
 20
29.8156
 30
0.0
  0
VERTEX
  5
1B7
  8
LAYER_1
 62
   250
 10
5.3593
 20
28.4216
 30
0.0
  0
VERTEX
  5
1B8
  8
LAYER_1
 62
   250
 10
6.2278
 20
26.8216
 30
0.0
  0
VERTEX
  5
1B9
  8
LAYER_1
 62
   250
 10
6.7766
 20
25.0534
 30
0.0
  0
VERTEX
  5
1BA
  8
LAYER_1
 62
   250
 10
6.968
 20
23.1551
 30
0.0
  0
VERTEX
  5
1BB
  8
LAYER_1
 62
   250
 10
6.7766
 20
21.2568
 30
0.0
  0
VERTEX
  5
1BC
  8
LAYER_1
 62
   250
 10
6.2278
 20
19.4886
 30
0.0
  0
VERTEX
  5
1BD
  8
LAYER_1
 62
   250
 10
5.3593
 20
17.8886
 30
0.0
  0
VERTEX
  5
1BE
  8
LAYER_1
 62
   250
 10
4.2091
 20
16.4946
 30
0.0
  0
VERTEX
  5
1BF
  8
LAYER_1
 62
   250
 10
2.8151
 20
15.3444
 30
0.0
  0
VERTEX
  5
1C0
  8
LAYER_1
 62
   250
 10
1.2151
 20
14.4759
 30
0.0
  0
VERTEX
  5
1C1
  8
LAYER_1
 62
   250
 10
-0.5531
 20
13.9271
 30
0.0
  0
VERTEX
  5
1C2
  8
LAYER_1
 62
   250
 10
-2.4514
 20
13.7357
 30
0.0
  0
VERTEX
  5
1C3
  8
LAYER_1
 62
   250
 10
-4.3498
 20
13.9271
 30
0.0
  0
VERTEX
  5
1C4
  8
LAYER_1
 62
   250
 10
-6.1179
 20
14.4759
 30
0.0
  0
VERTEX
  5
1C5
  8
LAYER_1
 62
   250
 10
-7.718
 20
15.3444
 30
0.0
  0
VERTEX
  5
1C6
  8
LAYER_1
 62
   250
 10
-9.112
 20
16.4946
 30
0.0
  0
VERTEX
  5
1C7
  8
LAYER_1
 62
   250
 10
-10.2622
 20
17.8886
 30
0.0
  0
VERTEX
  5
1C8
  8
LAYER_1
 62
   250
 10
-11.1307
 20
19.4886
 30
0.0
  0
VERTEX
  5
1C9
  8
LAYER_1
 62
   250
 10
-11.6795
 20
21.2568
 30
0.0
  0
VERTEX
  5
1CA
  8
LAYER_1
 62
   250
 10
-11.8709
 20
23.1551
 30
0.0
  0
VERTEX
  5
1CB
  8
LAYER_1
 62
   250
 10
-11.6795
 20
25.0534
 30
0.0
  0
VERTEX
  5
1CC
  8
LAYER_1
 62
   250
 10
-11.1307
 20
26.8216
 30
0.0
  0
VERTEX
  5
1CD
  8
LAYER_1
 62
   250
 10
-10.2622
 20
28.4216
 30
0.0
  0
VERTEX
  5
1CE
  8
LAYER_1
 62
   250
 10
-9.112
 20
29.8156
 30
0.0
  0
VERTEX
  5
1CF
  8
LAYER_1
 62
   250
 10
-7.718
 20
30.9658
 30
0.0
  0
VERTEX
  5
1D0
  8
LAYER_1
 62
   250
 10
-6.1179
 20
31.8343
 30
0.0
  0
VERTEX
  5
1D1
  8
LAYER_1
 62
   250
 10
-4.3498
 20
32.3831
 30
0.0
  0
VERTEX
  5
1D2
  8
LAYER_1
 62
   250
 10
-2.4514
 20
32.5745
 30
0.0
  0
SEQEND
  5
347
  8
LAYER_1
 62
   250
  0
POLYLINE
  5
78
  8
LAYER_1
 62
   250
 66
     1
 10
0.0
 20
0.0
 30
0.0
  0
VERTEX
  5
1D3
  8
LAYER_1
 62
   250
 10
-30.785
 20
35.9843
 30
0.0
  0
VERTEX
  5
1D4
  8
LAYER_1
 62
   250
 10
-31.4341
 20
36.0502
 30
0.0
  0
VERTEX
  5
1D5
  8
LAYER_1
 62
   250
 10
-32.0396
 20
36.2392
 30
0.0
  0
VERTEX
  5
1D6
  8
LAYER_1
 62
   250
 10
-32.5884
 20
36.538
 30
0.0
  0
VERTEX
  5
1D7
  8
LAYER_1
 62
   250
 10
-33.0671
 20
36.9334
 30
0.0
  0
VERTEX
  5
1D8
  8
LAYER_1
 62
   250
 10
-33.4624
 20
37.4121
 30
0.0
  0
VERTEX
  5
1D9
  8
LAYER_1
 62
   250
 10
-33.7612
 20
37.9608
 30
0.0
  0
VERTEX
  5
1DA
  8
LAYER_1
 62
   250
 10
-33.9503
 20
38.5664
 30
0.0
  0
VERTEX
  5
1DB
  8
LAYER_1
 62
   250
 10
-34.0162
 20
39.2155
 30
0.0
  0
VERTEX
  5
1DC
  8
LAYER_1
 62
   250
 10
-34.0162
 20
47.2874
 30
0.0
  0
VERTEX
  5
1DD
  8
LAYER_1
 62
   250
 10
-33.9503
 20
47.9365
 30
0.0
  0
VERTEX
  5
1DE
  8
LAYER_1
 62
   250
 10
-33.7612
 20
48.542
 30
0.0
  0
VERTEX
  5
1DF
  8
LAYER_1
 62
   250
 10
-33.4624
 20
49.0907
 30
0.0
  0
VERTEX
  5
1E0
  8
LAYER_1
 62
   250
 10
-33.0671
 20
49.5694
 30
0.0
  0
VERTEX
  5
1E1
  8
LAYER_1
 62
   250
 10
-32.5884
 20
49.9648
 30
0.0
  0
VERTEX
  5
1E2
  8
LAYER_1
 62
   250
 10
-32.0396
 20
50.2636
 30
0.0
  0
VERTEX
  5
1E3
  8
LAYER_1
 62
   250
 10
-31.4341
 20
50.4526
 30
0.0
  0
VERTEX
  5
1E4
  8
LAYER_1
 62
   250
 10
-30.785
 20
50.5185
 30
0.0
  0
VERTEX
  5
1E5
  8
LAYER_1
 62
   250
 10
-20.4807
 20
50.5185
 30
0.0
  0
VERTEX
  5
1E6
  8
LAYER_1
 62
   250
 10
-20.0379
 20
50.5114
 30
0.0
  0
VERTEX
  5
1E7
  8
LAYER_1
 62
   250
 10
-19.5851
 20
50.484
 30
0.0
  0
VERTEX
  5
1E8
  8
LAYER_1
 62
   250
 10
-19.1392
 20
50.4271
 30
0.0
  0
VERTEX
  5
1E9
  8
LAYER_1
 62
   250
 10
-18.7172
 20
50.3318
 30
0.0
  0
VERTEX
  5
1EA
  8
LAYER_1
 62
   250
 10
-18.3358
 20
50.1888
 30
0.0
  0
VERTEX
  5
1EB
  8
LAYER_1
 62
   250
 10
-18.0121
 20
49.989
 30
0.0
  0
VERTEX
  5
1EC
  8
LAYER_1
 62
   250
 10
-17.7631
 20
49.7235
 30
0.0
  0
VERTEX
  5
1ED
  8
LAYER_1
 62
   250
 10
-17.6055
 20
49.383
 30
0.0
  0
VERTEX
  5
1EE
  8
LAYER_1
 62
   250
 10
-17.559
 20
49.1136
 30
0.0
  0
VERTEX
  5
1EF
  8
LAYER_1
 62
   250
 10
-17.5568
 20
48.7924
 30
0.0
  0
VERTEX
  5
1F0
  8
LAYER_1
 62
   250
 10
-17.6054
 20
48.4346
 30
0.0
  0
VERTEX
  5
1F1
  8
LAYER_1
 62
   250
 10
-17.7117
 20
48.0553
 30
0.0
  0
VERTEX
  5
1F2
  8
LAYER_1
 62
   250
 10
-17.8821
 20
47.6697
 30
0.0
  0
VERTEX
  5
1F3
  8
LAYER_1
 62
   250
 10
-18.1233
 20
47.2928
 30
0.0
  0
VERTEX
  5
1F4
  8
LAYER_1
 62
   250
 10
-18.442
 20
46.9397
 30
0.0
  0
VERTEX
  5
1F5
  8
LAYER_1
 62
   250
 10
-18.8447
 20
46.6256
 30
0.0
  0
VERTEX
  5
1F6
  8
LAYER_1
 62
   250
 10
-20.0999
 20
45.7566
 30
0.0
  0
VERTEX
  5
1F7
  8
LAYER_1
 62
   250
 10
-21.2975
 20
44.8139
 30
0.0
  0
VERTEX
  5
1F8
  8
LAYER_1
 62
   250
 10
-22.4342
 20
43.801
 30
0.0
  0
VERTEX
  5
1F9
  8
LAYER_1
 62
   250
 10
-23.5067
 20
42.7209
 30
0.0
  0
VERTEX
  5
1FA
  8
LAYER_1
 62
   250
 10
-24.5117
 20
41.5771
 30
0.0
  0
VERTEX
  5
1FB
  8
LAYER_1
 62
   250
 10
-25.446
 20
40.3727
 30
0.0
  0
VERTEX
  5
1FC
  8
LAYER_1
 62
   250
 10
-26.3064
 20
39.111
 30
0.0
  0
VERTEX
  5
1FD
  8
LAYER_1
 62
   250
 10
-27.0895
 20
37.7954
 30
0.0
  0
VERTEX
  5
1FE
  8
LAYER_1
 62
   250
 10
-27.3268
 20
37.389
 30
0.0
  0
VERTEX
  5
1FF
  8
LAYER_1
 62
   250
 10
-27.5438
 20
37.06
 30
0.0
  0
VERTEX
  5
200
  8
LAYER_1
 62
   250
 10
-27.7427
 20
36.7989
 30
0.0
  0
VERTEX
  5
201
  8
LAYER_1
 62
   250
 10
-27.9263
 20
36.5961
 30
0.0
  0
VERTEX
  5
202
  8
LAYER_1
 62
   250
 10
-28.0969
 20
36.4422
 30
0.0
  0
VERTEX
  5
203
  8
LAYER_1
 62
   250
 10
-28.2571
 20
36.3275
 30
0.0
  0
VERTEX
  5
204
  8
LAYER_1
 62
   250
 10
-28.4094
 20
36.2427
 30
0.0
  0
VERTEX
  5
205
  8
LAYER_1
 62
   250
 10
-28.5563
 20
36.1781
 30
0.0
  0
VERTEX
  5
206
  8
LAYER_1
 62
   250
 10
-28.7017
 20
36.1258
 30
0.0
  0
VERTEX
  5
207
  8
LAYER_1
 62
   250
 10
-28.8577
 20
36.0832
 30
0.0
  0
VERTEX
  5
208
  8
LAYER_1
 62
   250
 10
-29.0381
 20
36.0495
 30
0.0
  0
VERTEX
  5
209
  8
LAYER_1
 62
   250
 10
-29.2566
 20
36.0238
 30
0.0
  0
VERTEX
  5
20A
  8
LAYER_1
 62
   250
 10
-29.8625
 20
35.9931
 30
0.0
  0
VERTEX
  5
20B
  8
LAYER_1
 62
   250
 10
-30.785
 20
35.9843
 30
0.0
  0
SEQEND
  5
348
  8
LAYER_1
 62
   250
  0
POLYLINE
  5
79
  8
LAYER_1
 62
   250
 66
     1
 10
0.0
 20
0.0
 30
0.0
  0
VERTEX
  5
20C
  8
LAYER_1
 62
   250
 10
25.4162
 20
35.9843
 30
0.0
  0
VERTEX
  5
20D
  8
LAYER_1
 62
   250
 10
26.0653
 20
36.0502
 30
0.0
  0
VERTEX
  5
20E
  8
LAYER_1
 62
   250
 10
26.6708
 20
36.2392
 30
0.0
  0
VERTEX
  5
20F
  8
LAYER_1
 62
   250
 10
27.2196
 20
36.538
 30
0.0
  0
VERTEX
  5
210
  8
LAYER_1
 62
   250
 10
27.6983
 20
36.9334
 30
0.0
  0
VERTEX
  5
211
  8
LAYER_1
 62
   250
 10
28.0936
 20
37.4121
 30
0.0
  0
VERTEX
  5
212
  8
LAYER_1
 62
   250
 10
28.3924
 20
37.9608
 30
0.0
  0
VERTEX
  5
213
  8
LAYER_1
 62
   250
 10
28.5815
 20
38.5664
 30
0.0
  0
VERTEX
  5
214
  8
LAYER_1
 62
   250
 10
28.6474
 20
39.2155
 30
0.0
  0
VERTEX
  5
215
  8
LAYER_1
 62
   250
 10
28.6474
 20
47.2874
 30
0.0
  0
VERTEX
  5
216
  8
LAYER_1
 62
   250
 10
28.5815
 20
47.9365
 30
0.0
  0
VERTEX
  5
217
  8
LAYER_1
 62
   250
 10
28.3924
 20
48.542
 30
0.0
  0
VERTEX
  5
218
  8
LAYER_1
 62
   250
 10
28.0936
 20
49.0907
 30
0.0
  0
VERTEX
  5
219
  8
LAYER_1
 62
   250
 10
27.6983
 20
49.5694
 30
0.0
  0
VERTEX
  5
21A
  8
LAYER_1
 62
   250
 10
27.2196
 20
49.9648
 30
0.0
  0
VERTEX
  5
21B
  8
LAYER_1
 62
   250
 10
26.6708
 20
50.2636
 30
0.0
  0
VERTEX
  5
21C
  8
LAYER_1
 62
   250
 10
26.0653
 20
50.4526
 30
0.0
  0
VERTEX
  5
21D
  8
LAYER_1
 62
   250
 10
25.4162
 20
50.5185
 30
0.0
  0
VERTEX
  5
21E
  8
LAYER_1
 62
   250
 10
15.1119
 20
50.5185
 30
0.0
  0
VERTEX
  5
21F
  8
LAYER_1
 62
   250
 10
14.6691
 20
50.5114
 30
0.0
  0
VERTEX
  5
220
  8
LAYER_1
 62
   250
 10
14.2163
 20
50.484
 30
0.0
  0
VERTEX
  5
221
  8
LAYER_1
 62
   250
 10
13.7704
 20
50.4271
 30
0.0
  0
VERTEX
  5
222
  8
LAYER_1
 62
   250
 10
13.3483
 20
50.3318
 30
0.0
  0
VERTEX
  5
223
  8
LAYER_1
 62
   250
 10
12.967
 20
50.1888
 30
0.0
  0
VERTEX
  5
224
  8
LAYER_1
 62
   250
 10
12.6433
 20
49.989
 30
0.0
  0
VERTEX
  5
225
  8
LAYER_1
 62
   250
 10
12.3942
 20
49.7235
 30
0.0
  0
VERTEX
  5
226
  8
LAYER_1
 62
   250
 10
12.2367
 20
49.383
 30
0.0
  0
VERTEX
  5
227
  8
LAYER_1
 62
   250
 10
12.1902
 20
49.1136
 30
0.0
  0
VERTEX
  5
228
  8
LAYER_1
 62
   250
 10
12.188
 20
48.7924
 30
0.0
  0
VERTEX
  5
229
  8
LAYER_1
 62
   250
 10
12.2366
 20
48.4346
 30
0.0
  0
VERTEX
  5
22A
  8
LAYER_1
 62
   250
 10
12.3429
 20
48.0553
 30
0.0
  0
VERTEX
  5
22B
  8
LAYER_1
 62
   250
 10
12.5133
 20
47.6697
 30
0.0
  0
VERTEX
  5
22C
  8
LAYER_1
 62
   250
 10
12.7545
 20
47.2928
 30
0.0
  0
VERTEX
  5
22D
  8
LAYER_1
 62
   250
 10
13.0732
 20
46.9397
 30
0.0
  0
VERTEX
  5
22E
  8
LAYER_1
 62
   250
 10
13.4759
 20
46.6256
 30
0.0
  0
VERTEX
  5
22F
  8
LAYER_1
 62
   250
 10
14.7311
 20
45.7566
 30
0.0
  0
VERTEX
  5
230
  8
LAYER_1
 62
   250
 10
15.9287
 20
44.8139
 30
0.0
  0
VERTEX
  5
231
  8
LAYER_1
 62
   250
 10
17.0653
 20
43.801
 30
0.0
  0
VERTEX
  5
232
  8
LAYER_1
 62
   250
 10
18.1378
 20
42.7209
 30
0.0
  0
VERTEX
  5
233
  8
LAYER_1
 62
   250
 10
19.1429
 20
41.5771
 30
0.0
  0
VERTEX
  5
234
  8
LAYER_1
 62
   250
 10
20.0772
 20
40.3727
 30
0.0
  0
VERTEX
  5
235
  8
LAYER_1
 62
   250
 10
20.9376
 20
39.111
 30
0.0
  0
VERTEX
  5
236
  8
LAYER_1
 62
   250
 10
21.7207
 20
37.7954
 30
0.0
  0
VERTEX
  5
237
  8
LAYER_1
 62
   250
 10
21.958
 20
37.389
 30
0.0
  0
VERTEX
  5
238
  8
LAYER_1
 62
   250
 10
22.175
 20
37.06
 30
0.0
  0
VERTEX
  5
239
  8
LAYER_1
 62
   250
 10
22.3739
 20
36.7989
 30
0.0
  0
VERTEX
  5
23A
  8
LAYER_1
 62
   250
 10
22.5575
 20
36.5961
 30
0.0
  0
VERTEX
  5
23B
  8
LAYER_1
 62
   250
 10
22.7281
 20
36.4422
 30
0.0
  0
VERTEX
  5
23C
  8
LAYER_1
 62
   250
 10
22.8884
 20
36.3275
 30
0.0
  0
VERTEX
  5
23D
  8
LAYER_1
 62
   250
 10
23.0407
 20
36.2427
 30
0.0
  0
VERTEX
  5
23E
  8
LAYER_1
 62
   250
 10
23.1876
 20
36.1781
 30
0.0
  0
VERTEX
  5
23F
  8
LAYER_1
 62
   250
 10
23.3329
 20
36.1258
 30
0.0
  0
VERTEX
  5
240
  8
LAYER_1
 62
   250
 10
23.4889
 20
36.0832
 30
0.0
  0
VERTEX
  5
241
  8
LAYER_1
 62
   250
 10
23.6693
 20
36.0495
 30
0.0
  0
VERTEX
  5
242
  8
LAYER_1
 62
   250
 10
23.8878
 20
36.0238
 30
0.0
  0
VERTEX
  5
243
  8
LAYER_1
 62
   250
 10
24.4937
 20
35.9931
 30
0.0
  0
VERTEX
  5
244
  8
LAYER_1
 62
   250
 10
25.4162
 20
35.9843
 30
0.0
  0
SEQEND
  5
349
  8
LAYER_1
 62
   250
  0
POLYLINE
  5
7A
  8
LAYER_1
 62
   250
 66
     1
 10
0.0
 20
0.0
 30
0.0
  0
VERTEX
  5
245
  8
LAYER_1
 62
   250
 10
6.7152
 20
34.6294
 30
0.0
  0
VERTEX
  5
246
  8
LAYER_1
 62
   250
 10
14.4347
 20
42.3489
 30
0.0
  0
VERTEX
  5
247
  8
LAYER_1
 62
   250
 10
12.6816
 20
43.761
 30
0.0
  0
VERTEX
  5
248
  8
LAYER_1
 62
   250
 10
10.8065
 20
45.017
 30
0.0
  0
VERTEX
  5
249
  8
LAYER_1
 62
   250
 10
8.8193
 20
46.107
 30
0.0
  0
VERTEX
  5
24A
  8
LAYER_1
 62
   250
 10
6.7299
 20
47.021
 30
0.0
  0
VERTEX
  5
24B
  8
LAYER_1
 62
   250
 10
4.5482
 20
47.7491
 30
0.0
  0
VERTEX
  5
24C
  8
LAYER_1
 62
   250
 10
2.2842
 20
48.2814
 30
0.0
  0
VERTEX
  5
24D
  8
LAYER_1
 62
   250
 10
-0.0523
 20
48.6081
 30
0.0
  0
VERTEX
  5
24E
  8
LAYER_1
 62
   250
 10
-2.4514
 20
48.7192
 30
0.0
  0
VERTEX
  5
24F
  8
LAYER_1
 62
   250
 10
-4.8505
 20
48.6081
 30
0.0
  0
VERTEX
  5
250
  8
LAYER_1
 62
   250
 10
-7.1871
 20
48.2814
 30
0.0
  0
VERTEX
  5
251
  8
LAYER_1
 62
   250
 10
-9.4511
 20
47.7491
 30
0.0
  0
VERTEX
  5
252
  8
LAYER_1
 62
   250
 10
-11.6328
 20
47.021
 30
0.0
  0
VERTEX
  5
253
  8
LAYER_1
 62
   250
 10
-13.7221
 20
46.107
 30
0.0
  0
VERTEX
  5
254
  8
LAYER_1
 62
   250
 10
-15.7093
 20
45.017
 30
0.0
  0
VERTEX
  5
255
  8
LAYER_1
 62
   250
 10
-17.5845
 20
43.761
 30
0.0
  0
VERTEX
  5
256
  8
LAYER_1
 62
   250
 10
-19.3376
 20
42.3489
 30
0.0
  0
VERTEX
  5
257
  8
LAYER_1
 62
   250
 10
-11.6181
 20
34.6294
 30
0.0
  0
VERTEX
  5
258
  8
LAYER_1
 62
   250
 10
-10.6451
 20
35.3444
 30
0.0
  0
VERTEX
  5
259
  8
LAYER_1
 62
   250
 10
-9.6135
 20
35.979
 30
0.0
  0
VERTEX
  5
25A
  8
LAYER_1
 62
   250
 10
-8.5279
 20
36.5286
 30
0.0
  0
VERTEX
  5
25B
  8
LAYER_1
 62
   250
 10
-7.393
 20
36.9887
 30
0.0
  0
VERTEX
  5
25C
  8
LAYER_1
 62
   250
 10
-6.2132
 20
37.3546
 30
0.0
  0
VERTEX
  5
25D
  8
LAYER_1
 62
   250
 10
-4.9933
 20
37.6216
 30
0.0
  0
VERTEX
  5
25E
  8
LAYER_1
 62
   250
 10
-3.7378
 20
37.7852
 30
0.0
  0
VERTEX
  5
25F
  8
LAYER_1
 62
   250
 10
-2.4514
 20
37.8408
 30
0.0
  0
VERTEX
  5
260
  8
LAYER_1
 62
   250
 10
-1.165
 20
37.7852
 30
0.0
  0
VERTEX
  5
261
  8
LAYER_1
 62
   250
 10
0.0904
 20
37.6216
 30
0.0
  0
VERTEX
  5
262
  8
LAYER_1
 62
   250
 10
1.3103
 20
37.3545
 30
0.0
  0
VERTEX
  5
263
  8
LAYER_1
 62
   250
 10
2.4901
 20
36.9887
 30
0.0
  0
VERTEX
  5
264
  8
LAYER_1
 62
   250
 10
3.625
 20
36.5286
 30
0.0
  0
VERTEX
  5
265
  8
LAYER_1
 62
   250
 10
4.7106
 20
35.9789
 30
0.0
  0
VERTEX
  5
266
  8
LAYER_1
 62
   250
 10
5.7422
 20
35.3443
 30
0.0
  0
VERTEX
  5
267
  8
LAYER_1
 62
   250
 10
6.7152
 20
34.6294
 30
0.0
  0
SEQEND
  5
34A
  8
LAYER_1
 62
   250
  0
POLYLINE
  5
7B
  8
LAYER_1
 62
   250
 66
     1
 10
0.0
 20
0.0
 30
0.0
  0
VERTEX
  5
268
  8
LAYER_1
 62
   250
 10
9.0228
 20
32.3217
 30
0.0
  0
VERTEX
  5
269
  8
LAYER_1
 62
   250
 10
16.7422
 20
40.0412
 30
0.0
  0
VERTEX
  5
26A
  8
LAYER_1
 62
   250
 10
18.1544
 20
38.2881
 30
0.0
  0
VERTEX
  5
26B
  8
LAYER_1
 62
   250
 10
19.4104
 20
36.4129
 30
0.0
  0
VERTEX
  5
26C
  8
LAYER_1
 62
   250
 10
20.5004
 20
34.4257
 30
0.0
  0
VERTEX
  5
26D
  8
LAYER_1
 62
   250
 10
21.4144
 20
32.3364
 30
0.0
  0
VERTEX
  5
26E
  8
LAYER_1
 62
   250
 10
22.1425
 20
30.1547
 30
0.0
  0
VERTEX
  5
26F
  8
LAYER_1
 62
   250
 10
22.6749
 20
27.8907
 30
0.0
  0
VERTEX
  5
270
  8
LAYER_1
 62
   250
 10
23.0016
 20
25.5542
 30
0.0
  0
VERTEX
  5
271
  8
LAYER_1
 62
   250
 10
23.1127
 20
23.1551
 30
0.0
  0
VERTEX
  5
272
  8
LAYER_1
 62
   250
 10
23.0016
 20
20.756
 30
0.0
  0
VERTEX
  5
273
  8
LAYER_1
 62
   250
 10
22.6749
 20
18.4195
 30
0.0
  0
VERTEX
  5
274
  8
LAYER_1
 62
   250
 10
22.1425
 20
16.1555
 30
0.0
  0
VERTEX
  5
275
  8
LAYER_1
 62
   250
 10
21.4144
 20
13.9738
 30
0.0
  0
VERTEX
  5
276
  8
LAYER_1
 62
   250
 10
20.5004
 20
11.8844
 30
0.0
  0
VERTEX
  5
277
  8
LAYER_1
 62
   250
 10
19.4104
 20
9.8972
 30
0.0
  0
VERTEX
  5
278
  8
LAYER_1
 62
   250
 10
18.1544
 20
8.0221
 30
0.0
  0
VERTEX
  5
279
  8
LAYER_1
 62
   250
 10
16.7422
 20
6.269
 30
0.0
  0
VERTEX
  5
27A
  8
LAYER_1
 62
   250
 10
9.0228
 20
13.9885
 30
0.0
  0
VERTEX
  5
27B
  8
LAYER_1
 62
   250
 10
9.7378
 20
14.9615
 30
0.0
  0
VERTEX
  5
27C
  8
LAYER_1
 62
   250
 10
10.3724
 20
15.993
 30
0.0
  0
VERTEX
  5
27D
  8
LAYER_1
 62
   250
 10
10.9221
 20
17.0786
 30
0.0
  0
VERTEX
  5
27E
  8
LAYER_1
 62
   250
 10
11.3822
 20
18.2136
 30
0.0
  0
VERTEX
  5
27F
  8
LAYER_1
 62
   250
 10
11.748
 20
19.3933
 30
0.0
  0
VERTEX
  5
280
  8
LAYER_1
 62
   250
 10
12.0151
 20
20.6133
 30
0.0
  0
VERTEX
  5
281
  8
LAYER_1
 62
   250
 10
12.1787
 20
21.8687
 30
0.0
  0
VERTEX
  5
282
  8
LAYER_1
 62
   250
 10
12.2343
 20
23.1551
 30
0.0
  0
VERTEX
  5
283
  8
LAYER_1
 62
   250
 10
12.1787
 20
24.4415
 30
0.0
  0
VERTEX
  5
284
  8
LAYER_1
 62
   250
 10
12.0151
 20
25.6969
 30
0.0
  0
VERTEX
  5
285
  8
LAYER_1
 62
   250
 10
11.7481
 20
26.9169
 30
0.0
  0
VERTEX
  5
286
  8
LAYER_1
 62
   250
 10
11.3822
 20
28.0966
 30
0.0
  0
VERTEX
  5
287
  8
LAYER_1
 62
   250
 10
10.9221
 20
29.2316
 30
0.0
  0
VERTEX
  5
288
  8
LAYER_1
 62
   250
 10
10.3724
 20
30.3172
 30
0.0
  0
VERTEX
  5
289
  8
LAYER_1
 62
   250
 10
9.7378
 20
31.3487
 30
0.0
  0
VERTEX
  5
28A
  8
LAYER_1
 62
   250
 10
9.0228
 20
32.3217
 30
0.0
  0
SEQEND
  5
34B
  8
LAYER_1
 62
   250
  0
POLYLINE
  5
7C
  8
LAYER_1
 62
   250
 66
     1
 10
0.0
 20
0.0
 30
0.0
  0
VERTEX
  5
28B
  8
LAYER_1
 62
   250
 10
-19.3376
 20
3.9613
 30
0.0
  0
VERTEX
  5
28C
  8
LAYER_1
 62
   250
 10
-11.6181
 20
11.6808
 30
0.0
  0
VERTEX
  5
28D
  8
LAYER_1
 62
   250
 10
-10.6451
 20
10.9659
 30
0.0
  0
VERTEX
  5
28E
  8
LAYER_1
 62
   250
 10
-9.6135
 20
10.3313
 30
0.0
  0
VERTEX
  5
28F
  8
LAYER_1
 62
   250
 10
-8.5279
 20
9.7816
 30
0.0
  0
VERTEX
  5
290
  8
LAYER_1
 62
   250
 10
-7.393
 20
9.3215
 30
0.0
  0
VERTEX
  5
291
  8
LAYER_1
 62
   250
 10
-6.2132
 20
8.9557
 30
0.0
  0
VERTEX
  5
292
  8
LAYER_1
 62
   250
 10
-4.9933
 20
8.6886
 30
0.0
  0
VERTEX
  5
293
  8
LAYER_1
 62
   250
 10
-3.7378
 20
8.525
 30
0.0
  0
VERTEX
  5
294
  8
LAYER_1
 62
   250
 10
-2.4514
 20
8.4694
 30
0.0
  0
VERTEX
  5
295
  8
LAYER_1
 62
   250
 10
-1.165
 20
8.525
 30
0.0
  0
VERTEX
  5
296
  8
LAYER_1
 62
   250
 10
0.0904
 20
8.6886
 30
0.0
  0
VERTEX
  5
297
  8
LAYER_1
 62
   250
 10
1.3103
 20
8.9556
 30
0.0
  0
VERTEX
  5
298
  8
LAYER_1
 62
   250
 10
2.4901
 20
9.3215
 30
0.0
  0
VERTEX
  5
299
  8
LAYER_1
 62
   250
 10
3.625
 20
9.7816
 30
0.0
  0
VERTEX
  5
29A
  8
LAYER_1
 62
   250
 10
4.7106
 20
10.3312
 30
0.0
  0
VERTEX
  5
29B
  8
LAYER_1
 62
   250
 10
5.7422
 20
10.9658
 30
0.0
  0
VERTEX
  5
29C
  8
LAYER_1
 62
   250
 10
6.7152
 20
11.6808
 30
0.0
  0
VERTEX
  5
29D
  8
LAYER_1
 62
   250
 10
14.4347
 20
3.9613
 30
0.0
  0
VERTEX
  5
29E
  8
LAYER_1
 62
   250
 10
12.6816
 20
2.5492
 30
0.0
  0
VERTEX
  5
29F
  8
LAYER_1
 62
   250
 10
10.8064
 20
1.2932
 30
0.0
  0
VERTEX
  5
2A0
  8
LAYER_1
 62
   250
 10
8.8192
 20
0.2032
 30
0.0
  0
VERTEX
  5
2A1
  8
LAYER_1
 62
   250
 10
6.7299
 20
-0.7108
 30
0.0
  0
VERTEX
  5
2A2
  8
LAYER_1
 62
   250
 10
4.5482
 20
-1.4389
 30
0.0
  0
VERTEX
  5
2A3
  8
LAYER_1
 62
   250
 10
2.2842
 20
-1.9712
 30
0.0
  0
VERTEX
  5
2A4
  8
LAYER_1
 62
   250
 10
-0.0523
 20
-2.2979
 30
0.0
  0
VERTEX
  5
2A5
  8
LAYER_1
 62
   250
 10
-2.4514
 20
-2.409
 30
0.0
  0
VERTEX
  5
2A6
  8
LAYER_1
 62
   250
 10
-4.8505
 20
-2.2979
 30
0.0
  0
VERTEX
  5
2A7
  8
LAYER_1
 62
   250
 10
-7.187
 20
-1.9712
 30
0.0
  0
VERTEX
  5
2A8
  8
LAYER_1
 62
   250
 10
-9.4511
 20
-1.4389
 30
0.0
  0
VERTEX
  5
2A9
  8
LAYER_1
 62
   250
 10
-11.6328
 20
-0.7108
 30
0.0
  0
VERTEX
  5
2AA
  8
LAYER_1
 62
   250
 10
-13.7222
 20
0.2032
 30
0.0
  0
VERTEX
  5
2AB
  8
LAYER_1
 62
   250
 10
-15.7094
 20
1.2932
 30
0.0
  0
VERTEX
  5
2AC
  8
LAYER_1
 62
   250
 10
-17.5845
 20
2.5492
 30
0.0
  0
VERTEX
  5
2AD
  8
LAYER_1
 62
   250
 10
-19.3376
 20
3.9613
 30
0.0
  0
SEQEND
  5
34C
  8
LAYER_1
 62
   250
  0
POLYLINE
  5
7D
  8
LAYER_1
 62
   250
 66
     1
 10
0.0
 20
0.0
 30
0.0
  0
VERTEX
  5
2AE
  8
LAYER_1
 62
   250
 10
-21.6453
 20
40.0412
 30
0.0
  0
VERTEX
  5
2AF
  8
LAYER_1
 62
   250
 10
-13.9258
 20
32.3217
 30
0.0
  0
VERTEX
  5
2B0
  8
LAYER_1
 62
   250
 10
-14.6407
 20
31.3487
 30
0.0
  0
VERTEX
  5
2B1
  8
LAYER_1
 62
   250
 10
-15.2753
 20
30.3172
 30
0.0
  0
VERTEX
  5
2B2
  8
LAYER_1
 62
   250
 10
-15.825
 20
29.2316
 30
0.0
  0
VERTEX
  5
2B3
  8
LAYER_1
 62
   250
 10
-16.2851
 20
28.0966
 30
0.0
  0
VERTEX
  5
2B4
  8
LAYER_1
 62
   250
 10
-16.6509
 20
26.9169
 30
0.0
  0
VERTEX
  5
2B5
  8
LAYER_1
 62
   250
 10
-16.918
 20
25.6969
 30
0.0
  0
VERTEX
  5
2B6
  8
LAYER_1
 62
   250
 10
-17.0816
 20
24.4415
 30
0.0
  0
VERTEX
  5
2B7
  8
LAYER_1
 62
   250
 10
-17.1372
 20
23.1551
 30
0.0
  0
VERTEX
  5
2B8
  8
LAYER_1
 62
   250
 10
-17.0816
 20
21.8687
 30
0.0
  0
VERTEX
  5
2B9
  8
LAYER_1
 62
   250
 10
-16.918
 20
20.6133
 30
0.0
  0
VERTEX
  5
2BA
  8
LAYER_1
 62
   250
 10
-16.651
 20
19.3933
 30
0.0
  0
VERTEX
  5
2BB
  8
LAYER_1
 62
   250
 10
-16.2851
 20
18.2136
 30
0.0
  0
VERTEX
  5
2BC
  8
LAYER_1
 62
   250
 10
-15.825
 20
17.0786
 30
0.0
  0
VERTEX
  5
2BD
  8
LAYER_1
 62
   250
 10
-15.2754
 20
15.993
 30
0.0
  0
VERTEX
  5
2BE
  8
LAYER_1
 62
   250
 10
-14.6408
 20
14.9615
 30
0.0
  0
VERTEX
  5
2BF
  8
LAYER_1
 62
   250
 10
-13.9258
 20
13.9885
 30
0.0
  0
VERTEX
  5
2C0
  8
LAYER_1
 62
   250
 10
-21.6453
 20
6.269
 30
0.0
  0
VERTEX
  5
2C1
  8
LAYER_1
 62
   250
 10
-23.0574
 20
8.0221
 30
0.0
  0
VERTEX
  5
2C2
  8
LAYER_1
 62
   250
 10
-24.3134
 20
9.8973
 30
0.0
  0
VERTEX
  5
2C3
  8
LAYER_1
 62
   250
 10
-25.4034
 20
11.8845
 30
0.0
  0
VERTEX
  5
2C4
  8
LAYER_1
 62
   250
 10
-26.3174
 20
13.9738
 30
0.0
  0
VERTEX
  5
2C5
  8
LAYER_1
 62
   250
 10
-27.0455
 20
16.1555
 30
0.0
  0
VERTEX
  5
2C6
  8
LAYER_1
 62
   250
 10
-27.5778
 20
18.4195
 30
0.0
  0
VERTEX
  5
2C7
  8
LAYER_1
 62
   250
 10
-27.9045
 20
20.756
 30
0.0
  0
VERTEX
  5
2C8
  8
LAYER_1
 62
   250
 10
-28.0156
 20
23.1551
 30
0.0
  0
VERTEX
  5
2C9
  8
LAYER_1
 62
   250
 10
-27.9045
 20
25.5542
 30
0.0
  0
VERTEX
  5
2CA
  8
LAYER_1
 62
   250
 10
-27.5778
 20
27.8907
 30
0.0
  0
VERTEX
  5
2CB
  8
LAYER_1
 62
   250
 10
-27.0455
 20
30.1547
 30
0.0
  0
VERTEX
  5
2CC
  8
LAYER_1
 62
   250
 10
-26.3174
 20
32.3364
 30
0.0
  0
VERTEX
  5
2CD
  8
LAYER_1
 62
   250
 10
-25.4034
 20
34.4258
 30
0.0
  0
VERTEX
  5
2CE
  8
LAYER_1
 62
   250
 10
-24.3134
 20
36.413
 30
0.0
  0
VERTEX
  5
2CF
  8
LAYER_1
 62
   250
 10
-23.0574
 20
38.2881
 30
0.0
  0
VERTEX
  5
2D0
  8
LAYER_1
 62
   250
 10
-21.6453
 20
40.0412
 30
0.0
  0
SEQEND
  5
34D
  8
LAYER_1
 62
   250
  0
POLYLINE
  5
7E
  8
LAYER_1
 62
   250
 66
     1
 10
0.0
 20
0.0
 30
0.0
  0
VERTEX
  5
2D1
  8
LAYER_1
 62
   250
 10
-31.2212
 20
-9.2614
 30
0.0
  0
VERTEX
  5
2D2
  8
LAYER_1
 62
   250
 10
-21.0471
 20
-9.2614
 30
0.0
  0
VERTEX
  5
2D3
  8
LAYER_1
 62
   250
 10
-20.6941
 20
-9.2973
 30
0.0
  0
VERTEX
  5
2D4
  8
LAYER_1
 62
   250
 10
-20.3648
 20
-9.4001
 30
0.0
  0
VERTEX
  5
2D5
  8
LAYER_1
 62
   250
 10
-20.0664
 20
-9.5626
 30
0.0
  0
VERTEX
  5
2D6
  8
LAYER_1
 62
   250
 10
-19.8061
 20
-9.7776
 30
0.0
  0
VERTEX
  5
2D7
  8
LAYER_1
 62
   250
 10
-19.5911
 20
-10.0379
 30
0.0
  0
VERTEX
  5
2D8
  8
LAYER_1
 62
   250
 10
-19.4286
 20
-10.3364
 30
0.0
  0
VERTEX
  5
2D9
  8
LAYER_1
 62
   250
 10
-19.3258
 20
-10.6657
 30
0.0
  0
VERTEX
  5
2DA
  8
LAYER_1
 62
   250
 10
-19.2899
 20
-11.0187
 30
0.0
  0
VERTEX
  5
2DB
  8
LAYER_1
 62
   250
 10
-19.2899
 20
-21.8344
 30
0.0
  0
VERTEX
  5
2DC
  8
LAYER_1
 62
   250
 10
-19.3258
 20
-22.1874
 30
0.0
  0
VERTEX
  5
2DD
  8
LAYER_1
 62
   250
 10
-19.4286
 20
-22.5167
 30
0.0
  0
VERTEX
  5
2DE
  8
LAYER_1
 62
   250
 10
-19.5911
 20
-22.8151
 30
0.0
  0
VERTEX
  5
2DF
  8
LAYER_1
 62
   250
 10
-19.8061
 20
-23.0754
 30
0.0
  0
VERTEX
  5
2E0
  8
LAYER_1
 62
   250
 10
-20.0664
 20
-23.2904
 30
0.0
  0
VERTEX
  5
2E1
  8
LAYER_1
 62
   250
 10
-20.3648
 20
-23.453
 30
0.0
  0
VERTEX
  5
2E2
  8
LAYER_1
 62
   250
 10
-20.6941
 20
-23.5557
 30
0.0
  0
VERTEX
  5
2E3
  8
LAYER_1
 62
   250
 10
-21.0471
 20
-23.5916
 30
0.0
  0
VERTEX
  5
2E4
  8
LAYER_1
 62
   250
 10
-31.2212
 20
-23.5916
 30
0.0
  0
VERTEX
  5
2E5
  8
LAYER_1
 62
   250
 10
-31.5742
 20
-23.5557
 30
0.0
  0
VERTEX
  5
2E6
  8
LAYER_1
 62
   250
 10
-31.9035
 20
-23.453
 30
0.0
  0
VERTEX
  5
2E7
  8
LAYER_1
 62
   250
 10
-32.202
 20
-23.2904
 30
0.0
  0
VERTEX
  5
2E8
  8
LAYER_1
 62
   250
 10
-32.4623
 20
-23.0754
 30
0.0
  0
VERTEX
  5
2E9
  8
LAYER_1
 62
   250
 10
-32.6773
 20
-22.8151
 30
0.0
  0
VERTEX
  5
2EA
  8
LAYER_1
 62
   250
 10
-32.8398
 20
-22.5167
 30
0.0
  0
VERTEX
  5
2EB
  8
LAYER_1
 62
   250
 10
-32.9426
 20
-22.1874
 30
0.0
  0
VERTEX
  5
2EC
  8
LAYER_1
 62
   250
 10
-32.9785
 20
-21.8344
 30
0.0
  0
VERTEX
  5
2ED
  8
LAYER_1
 62
   250
 10
-32.9785
 20
-11.0187
 30
0.0
  0
VERTEX
  5
2EE
  8
LAYER_1
 62
   250
 10
-32.9426
 20
-10.6657
 30
0.0
  0
VERTEX
  5
2EF
  8
LAYER_1
 62
   250
 10
-32.8398
 20
-10.3364
 30
0.0
  0
VERTEX
  5
2F0
  8
LAYER_1
 62
   250
 10
-32.6773
 20
-10.0379
 30
0.0
  0
VERTEX
  5
2F1
  8
LAYER_1
 62
   250
 10
-32.4623
 20
-9.7776
 30
0.0
  0
VERTEX
  5
2F2
  8
LAYER_1
 62
   250
 10
-32.202
 20
-9.5626
 30
0.0
  0
VERTEX
  5
2F3
  8
LAYER_1
 62
   250
 10
-31.9035
 20
-9.4001
 30
0.0
  0
VERTEX
  5
2F4
  8
LAYER_1
 62
   250
 10
-31.5742
 20
-9.2973
 30
0.0
  0
VERTEX
  5
2F5
  8
LAYER_1
 62
   250
 10
-31.2212
 20
-9.2614
 30
0.0
  0
SEQEND
  5
34E
  8
LAYER_1
 62
   250
  0
POLYLINE
  5
7F
  8
LAYER_1
 62
   250
 66
     1
 10
0.0
 20
0.0
 30
0.0
  0
VERTEX
  5
2F6
  8
LAYER_1
 62
   250
 10
12.7754
 20
-28.0522
 30
0.0
  0
VERTEX
  5
2F7
  8
LAYER_1
 62
   250
 10
24.2572
 20
-28.0522
 30
0.0
  0
VERTEX
  5
2F8
  8
LAYER_1
 62
   250
 10
24.6486
 20
-28.092
 30
0.0
  0
VERTEX
  5
2F9
  8
LAYER_1
 62
   250
 10
25.0137
 20
-28.2059
 30
0.0
  0
VERTEX
  5
2FA
  8
LAYER_1
 62
   250
 10
25.3446
 20
-28.3861
 30
0.0
  0
VERTEX
  5
2FB
  8
LAYER_1
 62
   250
 10
25.6333
 20
-28.6245
 30
0.0
  0
VERTEX
  5
2FC
  8
LAYER_1
 62
   250
 10
25.8717
 20
-28.9131
 30
0.0
  0
VERTEX
  5
2FD
  8
LAYER_1
 62
   250
 10
26.0519
 20
-29.244
 30
0.0
  0
VERTEX
  5
2FE
  8
LAYER_1
 62
   250
 10
26.1658
 20
-29.6091
 30
0.0
  0
VERTEX
  5
2FF
  8
LAYER_1
 62
   250
 10
26.2056
 20
-30.0004
 30
0.0
  0
VERTEX
  5
300
  8
LAYER_1
 62
   250
 10
26.2056
 20
-40.4629
 30
0.0
  0
VERTEX
  5
301
  8
LAYER_1
 62
   250
 10
26.1658
 20
-40.8543
 30
0.0
  0
VERTEX
  5
302
  8
LAYER_1
 62
   250
 10
26.0519
 20
-41.2195
 30
0.0
  0
VERTEX
  5
303
  8
LAYER_1
 62
   250
 10
25.8717
 20
-41.5503
 30
0.0
  0
VERTEX
  5
304
  8
LAYER_1
 62
   250
 10
25.6333
 20
-41.839
 30
0.0
  0
VERTEX
  5
305
  8
LAYER_1
 62
   250
 10
25.3446
 20
-42.0774
 30
0.0
  0
VERTEX
  5
306
  8
LAYER_1
 62
   250
 10
25.0137
 20
-42.2576
 30
0.0
  0
VERTEX
  5
307
  8
LAYER_1
 62
   250
 10
24.6486
 20
-42.3715
 30
0.0
  0
VERTEX
  5
308
  8
LAYER_1
 62
   250
 10
24.2572
 20
-42.4113
 30
0.0
  0
VERTEX
  5
309
  8
LAYER_1
 62
   250
 10
12.7754
 20
-42.4113
 30
0.0
  0
VERTEX
  5
30A
  8
LAYER_1
 62
   250
 10
12.384
 20
-42.3715
 30
0.0
  0
VERTEX
  5
30B
  8
LAYER_1
 62
   250
 10
12.0189
 20
-42.2576
 30
0.0
  0
VERTEX
  5
30C
  8
LAYER_1
 62
   250
 10
11.6881
 20
-42.0774
 30
0.0
  0
VERTEX
  5
30D
  8
LAYER_1
 62
   250
 10
11.3994
 20
-41.839
 30
0.0
  0
VERTEX
  5
30E
  8
LAYER_1
 62
   250
 10
11.161
 20
-41.5503
 30
0.0
  0
VERTEX
  5
30F
  8
LAYER_1
 62
   250
 10
10.9808
 20
-41.2195
 30
0.0
  0
VERTEX
  5
310
  8
LAYER_1
 62
   250
 10
10.8669
 20
-40.8543
 30
0.0
  0
VERTEX
  5
311
  8
LAYER_1
 62
   250
 10
10.8271
 20
-40.4629
 30
0.0
  0
VERTEX
  5
312
  8
LAYER_1
 62
   250
 10
10.8271
 20
-30.0004
 30
0.0
  0
VERTEX
  5
313
  8
LAYER_1
 62
   250
 10
10.8669
 20
-29.6091
 30
0.0
  0
VERTEX
  5
314
  8
LAYER_1
 62
   250
 10
10.9808
 20
-29.244
 30
0.0
  0
VERTEX
  5
315
  8
LAYER_1
 62
   250
 10
11.161
 20
-28.9131
 30
0.0
  0
VERTEX
  5
316
  8
LAYER_1
 62
   250
 10
11.3994
 20
-28.6245
 30
0.0
  0
VERTEX
  5
317
  8
LAYER_1
 62
   250
 10
11.6881
 20
-28.3861
 30
0.0
  0
VERTEX
  5
318
  8
LAYER_1
 62
   250
 10
12.0189
 20
-28.2059
 30
0.0
  0
VERTEX
  5
319
  8
LAYER_1
 62
   250
 10
12.384
 20
-28.092
 30
0.0
  0
VERTEX
  5
31A
  8
LAYER_1
 62
   250
 10
12.7754
 20
-28.0522
 30
0.0
  0
SEQEND
  5
34F
  8
LAYER_1
 62
   250
  0
POLYLINE
  5
80
  8
LAYER_1
 62
   250
 66
     1
 10
0.0
 20
0.0
 30
0.0
  0
VERTEX
  5
31B
  8
LAYER_1
 62
   250
 10
-29.2476
 20
-27.9554
 30
0.0
  0
VERTEX
  5
31C
  8
LAYER_1
 62
   250
 10
-17.636
 20
-27.9554
 30
0.0
  0
VERTEX
  5
31D
  8
LAYER_1
 62
   250
 10
-17.242
 20
-27.9954
 30
0.0
  0
VERTEX
  5
31E
  8
LAYER_1
 62
   250
 10
-16.8744
 20
-28.1102
 30
0.0
  0
VERTEX
  5
31F
  8
LAYER_1
 62
   250
 10
-16.5413
 20
-28.2916
 30
0.0
  0
VERTEX
  5
320
  8
LAYER_1
 62
   250
 10
-16.2507
 20
-28.5316
 30
0.0
  0
VERTEX
  5
321
  8
LAYER_1
 62
   250
 10
-16.0107
 20
-28.8222
 30
0.0
  0
VERTEX
  5
322
  8
LAYER_1
 62
   250
 10
-15.8293
 20
-29.1553
 30
0.0
  0
VERTEX
  5
323
  8
LAYER_1
 62
   250
 10
-15.7146
 20
-29.5228
 30
0.0
  0
VERTEX
  5
324
  8
LAYER_1
 62
   250
 10
-15.6746
 20
-29.9168
 30
0.0
  0
VERTEX
  5
325
  8
LAYER_1
 62
   250
 10
-15.6746
 20
-40.45
 30
0.0
  0
VERTEX
  5
326
  8
LAYER_1
 62
   250
 10
-15.7146
 20
-40.844
 30
0.0
  0
VERTEX
  5
327
  8
LAYER_1
 62
   250
 10
-15.8293
 20
-41.2116
 30
0.0
  0
VERTEX
  5
328
  8
LAYER_1
 62
   250
 10
-16.0107
 20
-41.5446
 30
0.0
  0
VERTEX
  5
329
  8
LAYER_1
 62
   250
 10
-16.2507
 20
-41.8352
 30
0.0
  0
VERTEX
  5
32A
  8
LAYER_1
 62
   250
 10
-16.5413
 20
-42.0752
 30
0.0
  0
VERTEX
  5
32B
  8
LAYER_1
 62
   250
 10
-16.8744
 20
-42.2566
 30
0.0
  0
VERTEX
  5
32C
  8
LAYER_1
 62
   250
 10
-17.242
 20
-42.3713
 30
0.0
  0
VERTEX
  5
32D
  8
LAYER_1
 62
   250
 10
-17.636
 20
-42.4113
 30
0.0
  0
VERTEX
  5
32E
  8
LAYER_1
 62
   250
 10
-29.2476
 20
-42.4113
 30
0.0
  0
VERTEX
  5
32F
  8
LAYER_1
 62
   250
 10
-29.6416
 20
-42.3713
 30
0.0
  0
VERTEX
  5
330
  8
LAYER_1
 62
   250
 10
-30.0092
 20
-42.2566
 30
0.0
  0
VERTEX
  5
331
  8
LAYER_1
 62
   250
 10
-30.3423
 20
-42.0752
 30
0.0
  0
VERTEX
  5
332
  8
LAYER_1
 62
   250
 10
-30.6329
 20
-41.8352
 30
0.0
  0
VERTEX
  5
333
  8
LAYER_1
 62
   250
 10
-30.8729
 20
-41.5446
 30
0.0
  0
VERTEX
  5
334
  8
LAYER_1
 62
   250
 10
-31.0543
 20
-41.2116
 30
0.0
  0
VERTEX
  5
335
  8
LAYER_1
 62
   250
 10
-31.169
 20
-40.844
 30
0.0
  0
VERTEX
  5
336
  8
LAYER_1
 62
   250
 10
-31.209
 20
-40.45
 30
0.0
  0
VERTEX
  5
337
  8
LAYER_1
 62
   250
 10
-31.209
 20
-29.9168
 30
0.0
  0
VERTEX
  5
338
  8
LAYER_1
 62
   250
 10
-31.169
 20
-29.5228
 30
0.0
  0
VERTEX
  5
339
  8
LAYER_1
 62
   250
 10
-31.0543
 20
-29.1553
 30
0.0
  0
VERTEX
  5
33A
  8
LAYER_1
 62
   250
 10
-30.8729
 20
-28.8222
 30
0.0
  0
VERTEX
  5
33B
  8
LAYER_1
 62
   250
 10
-30.6329
 20
-28.5316
 30
0.0
  0
VERTEX
  5
33C
  8
LAYER_1
 62
   250
 10
-30.3423
 20
-28.2916
 30
0.0
  0
VERTEX
  5
33D
  8
LAYER_1
 62
   250
 10
-30.0092
 20
-28.1102
 30
0.0
  0
VERTEX
  5
33E
  8
LAYER_1
 62
   250
 10
-29.6416
 20
-27.9954
 30
0.0
  0
VERTEX
  5
33F
  8
LAYER_1
 62
   250
 10
-29.2476
 20
-27.9554
 30
0.0
  0
SEQEND
  5
350
  8
LAYER_1
 62
   250
  0
ENDSEC
  0
EOF
